<?xml version="1.0" encoding="UTF-8"?>
<!DOCTYPE svg PUBLIC "-//W3C//DTD SVG 1.1//EN" "http://www.w3.org/Graphics/SVG/1.1/DTD/svg11.dtd">
<!-- Creator: CorelDRAW 2018 (64-Bit) -->
<svg xmlns="http://www.w3.org/2000/svg" xml:space="preserve" width="600px" height="200px" version="1.1" style="shape-rendering:geometricPrecision; text-rendering:geometricPrecision; image-rendering:optimizeQuality; fill-rule:evenodd; clip-rule:evenodd"
viewBox="0 0 600 200"
 xmlns:xlink="http://www.w3.org/1999/xlink">
 <defs>
  <style type="text/css">
   <![CDATA[
    .fil0 {fill:#2B2A29;fill-rule:nonzero}
   ]]>
  </style>
 </defs>
 <g id="Слой_x0020_1">
  <metadata id="CorelCorpID_0Corel-Layer"/>
  <g id="_3014135681856">
   <path class="fil0" d="M111.18 82.03c-1.68,-4.82 -2.55,-8.63 -2.62,-11.43 2.02,-1.47 4.63,-2.67 7.81,-3.62 3.18,-0.94 5.78,-1.06 7.81,-0.36 -1.75,3.28 -3.32,7.06 -4.72,11.32 -0.21,1.12 0.28,2.78 1.47,4.98 1.19,2.2 2.27,3.65 3.25,4.35 2.65,-8.04 7.97,-16.04 15.93,-24.01 0,-1.05 -1.06,-2.71 -3.19,-4.98 -2.13,-2.27 -3.79,-3.58 -4.98,-3.93 -1.96,3.22 -3.53,5.66 -4.72,7.34 -2.59,-2.86 -5.59,-5.03 -9.02,-6.5 -6.85,1.82 -11.99,4.47 -15.41,7.97 -3.43,3.49 -5.7,7.86 -6.82,13.1 0.56,1.47 1.4,3.64 2.52,6.5 1.19,3.01 2.15,5.51 2.88,7.5 0.74,1.99 1.51,4.33 2.31,7.03 0.8,2.69 1.33,4.99 1.57,6.92 0.25,1.92 0.37,4.07 0.37,6.44 0,2.38 -0.33,4.48 -1,6.29 -0.66,1.82 -1.64,3.8 -2.93,5.93 -1.3,2.13 -2.97,4.1 -5.03,5.92 -2.07,1.82 -4.6,3.67 -7.61,5.56 -3,1.89 -6.46,3.7 -10.38,5.45 -1.04,-2.59 -0.59,-6.99 1.37,-13.21 1.95,-6.22 4.87,-12.16 8.75,-17.82 3.88,-5.67 7.64,-8.88 11.27,-9.65 -1.12,-2.45 -2.83,-4.44 -5.13,-5.98 -2.31,-1.53 -4.86,-2.16 -7.66,-1.88 -2.45,1.19 -4.93,3.95 -7.44,8.28 -2.52,4.33 -4.53,9.11 -6.03,14.31 -1.5,5.21 -2.55,10.43 -3.15,15.68 -0.59,5.24 -0.19,9.4 1.21,12.47 0.49,0.21 1.03,0.49 1.62,0.84 0.6,0.35 1.05,0.58 1.37,0.68 0.31,0.11 0.96,0.25 1.94,0.42 0.98,0.18 2.34,0.33 4.09,0.47 4.05,-0.62 8.8,-2.58 14.26,-5.87 5.45,-3.28 10.39,-7.32 14.83,-12.11 4.44,-4.78 7.04,-9.28 7.81,-13.47 0.28,-4.82 -0.33,-9.98 -1.83,-15.47 -1.51,-5.48 -3.1,-10.64 -4.77,-15.46z"/>
   <path class="fil0" d="M222.63 102.32c-3.64,6.33 -6.76,11.29 -9.38,14.89 -2.63,3.6 -4.98,6.02 -7.08,7.28 -0.56,-0.14 -0.89,-0.59 -1,-1.36 -0.1,-0.77 -0.03,-1.75 0.21,-2.93 0.25,-1.19 0.54,-2.38 0.89,-3.57 0.35,-1.19 0.75,-2.41 1.21,-3.67 0.45,-1.26 0.82,-2.2 1.1,-2.83 0.28,-0.63 0.49,-1.12 0.63,-1.47 1.89,-4.4 4.05,-8.65 6.5,-12.74 2.45,-4.09 4.68,-7.14 6.71,-9.17l6.08 5.45c-0.28,0.42 -2.24,3.79 -5.87,10.12zm-38.17 -6.82c3.43,-4.15 6.57,-7.32 9.44,-9.48 -0.84,5.52 -2.74,10.3 -5.71,14.36 -2.98,4.05 -6.91,6.53 -11.8,7.44 1.96,-4.05 4.65,-8.16 8.07,-12.32zm116.18 0c3.42,-4.15 6.56,-7.32 9.43,-9.48 -0.84,5.52 -2.74,10.3 -5.71,14.36 -2.98,4.05 -6.91,6.53 -11.8,7.44 1.96,-4.05 4.65,-8.16 8.08,-12.32zm54.66 -16.2c-1.58,-0.7 -3.38,-0.81 -5.4,-0.32l-1.79 3.78c-3.21,2.58 -6.65,5.66 -10.32,9.23 -3.67,3.56 -6.31,6.61 -7.92,9.12 2.45,-5.38 5.1,-10.52 7.97,-15.42 0.42,-0.7 -0.12,-1.45 -1.63,-2.25 -1.5,-0.81 -3.18,-1.43 -5.03,-1.89 -1.85,-0.45 -3.19,-0.64 -4.04,-0.58 -3.07,6.36 -6.41,14.76 -10.01,25.18 -0.87,2.52 -1.68,4.84 -2.41,6.97 -5.29,5.12 -10.86,9.34 -16.71,12.63 -6.99,3.99 -10.62,4.13 -10.9,0.42 -0.42,-2.31 0.56,-6.5 2.93,-12.58 1.75,-0.7 3.95,-1.31 6.61,-1.83 2.66,-0.53 5.38,-0.74 8.18,-0.63 2.79,0.1 4.65,0.75 5.56,1.94 -0.21,-3.43 -1.4,-5.49 -3.57,-6.19 2.94,-2.87 5.17,-5.68 6.71,-8.44 1.54,-2.76 2.73,-6.31 3.57,-10.64 -2.03,-2.8 -5.95,-5.31 -11.75,-7.55 -4.54,1.68 -8.95,4.93 -13.21,9.75 -4.26,4.82 -7.7,9.84 -10.33,15.04 -1.65,3.3 -2.96,6.41 -3.94,9.35 -3.04,2.97 -6.98,7.21 -11.83,12.73 -0.49,-5.17 -0.84,-10.93 -1.05,-17.29 4.14,-3.43 7.85,-7.23 11.14,-11.42 3.29,-4.19 4.86,-8 4.72,-11.43 0,-0.41 -0.32,-0.9 -0.95,-1.46 -0.48,-0.56 -1.15,-1.15 -1.99,-1.78 -0.28,-0.21 -0.68,-0.46 -1.2,-0.74 -0.53,-0.28 -0.86,-0.49 -1,-0.63 -1.33,-0.63 -2.97,0.04 -4.93,2 -7.35,6.83 -12.88,12.42 -16.59,16.74 1.19,-2.79 3.11,-7.16 5.76,-13.1 6.57,-13.28 10.84,-21.29 12.8,-24.01 0.42,-0.7 -0.13,-1.44 -1.63,-2.21 -1.5,-0.76 -3.2,-1.38 -5.08,-1.83 -1.89,-0.46 -3.22,-0.65 -3.99,-0.58 -9.45,20.31 -17.03,38.06 -22.74,53.28 -3.19,2.91 -7.91,7.87 -14.16,14.87 0.83,-3.77 3.61,-10.78 8.33,-21.02 4.72,-10.24 8.37,-17.17 10.96,-20.81 0.42,-0.7 -0.12,-1.45 -1.63,-2.25 -1.5,-0.81 -3.18,-1.44 -5.03,-1.89 -1.85,-0.46 -3.2,-0.65 -4.04,-0.58 -0.98,2.1 -1.71,3.74 -2.2,4.93 -4.96,-2.8 -8.74,-4.62 -11.32,-5.45 -0.14,-0.07 -0.25,-0.07 -0.32,0 -3.42,1.61 -7.11,5.36 -11.06,11.27 -3.95,5.91 -7.16,12.32 -9.64,19.24 -0.28,0.78 -0.54,1.53 -0.78,2.28 -5.25,5.06 -10.78,9.23 -16.58,12.5 -6.99,3.99 -10.62,4.13 -10.9,0.42 -0.42,-2.31 0.56,-6.5 2.93,-12.58 1.75,-0.7 3.95,-1.31 6.61,-1.83 2.66,-0.53 5.38,-0.74 8.18,-0.63 2.79,0.1 4.65,0.75 5.56,1.94 -0.21,-3.43 -1.4,-5.49 -3.57,-6.19 2.94,-2.87 5.17,-5.68 6.71,-8.44 1.54,-2.76 2.73,-6.31 3.57,-10.64 -2.03,-2.8 -5.95,-5.31 -11.75,-7.55 -4.54,1.68 -8.95,4.93 -13.21,9.75 -4.26,4.82 -7.7,9.84 -10.32,15.04 -1.7,3.38 -3.04,6.57 -4.02,9.57 -3.09,2.99 -7.01,7.11 -11.76,12.4 1.18,-3.98 3.28,-9.77 6.29,-17.35 3,-7.59 5.83,-14.21 8.49,-19.87 0.42,-0.77 0.7,-1.57 0.84,-2.41 0,-0.7 -0.74,-1.63 -2.2,-2.78 -1.47,-1.15 -2.7,-1.98 -3.67,-2.47 -1.4,-0.55 -3.15,0.08 -5.25,1.89 -0.49,0.49 -1.62,1.56 -3.4,3.2 -1.79,1.64 -3.31,3.06 -4.56,4.25 -1.26,1.19 -2.68,2.69 -4.25,4.51 -1.57,1.81 -2.88,3.52 -3.93,5.13 0.77,-1.53 1.78,-3.53 3.04,-5.97 1.26,-2.45 2.27,-4.42 3.04,-5.93 0.77,-1.5 1.43,-2.67 1.99,-3.51 0.42,-0.7 -0.1,-1.45 -1.57,-2.25 -1.47,-0.81 -3.13,-1.44 -4.98,-1.89 -1.86,-0.46 -3.2,-0.65 -4.04,-0.58 -7.9,19.5 -13.77,35.02 -17.61,46.55 0,1.33 0.83,2.52 2.51,3.57 1.68,1.05 3.39,1.57 5.14,1.57 0.7,-2.37 1.68,-5.28 2.94,-8.7 5.31,-12.02 13.76,-23.28 25.37,-33.76 -8.25,17.4 -13.21,29.85 -14.89,37.32 0,1.33 1.07,2.54 3.2,3.62 2.13,1.09 4.1,1.59 5.92,1.52 2.03,-2.65 6.08,-6.73 12.16,-12.21 0.02,-0.01 0.03,-0.02 0.04,-0.03 0.96,6.46 4.73,10.79 11.29,12.97 4.89,0 11.53,-2.95 19.92,-8.85 1.69,-1.2 3.25,-2.36 4.73,-3.49 -0.44,2.56 -0.59,4.87 -0.43,6.89 0.49,0.98 1.57,1.89 3.25,2.73 1.68,0.84 3.25,1.29 4.72,1.36 4.89,-1.81 10.59,-8.49 17.09,-20.02 -2.45,7.06 -4.02,12.23 -4.72,15.51 0.28,1.33 1.26,2.54 2.93,3.62 1.68,1.09 3.36,1.59 5.04,1.52 3.31,-3.5 7.35,-7.52 12.1,-12.05 -0.83,2.37 -1.62,4.68 -2.35,6.91 0,1.33 0.84,2.52 2.51,3.57 1.68,1.05 3.39,1.57 5.14,1.57 0.56,-1.82 1.28,-4.07 2.18,-6.74 1.73,-4.43 3.43,-8.26 5.09,-11.49 1.66,-3.23 3.49,-6.17 5.5,-8.8 2.01,-2.63 3.64,-4.58 4.91,-5.83 1.26,-1.26 3.25,-3.23 5.97,-5.94 2.73,-2.71 4.73,-4.7 6.02,-5.98 0.84,1.41 -0.81,4.68 -4.94,9.83 -4.14,5.15 -7.55,8.71 -10.26,10.67 0.21,10.09 0.45,16.22 0.73,18.39 0.07,1.69 0.98,3.11 2.73,4.26 1.75,1.16 3.42,1.7 5.03,1.63 4.59,-4.79 8.59,-8.8 12.01,-12.04 1.02,6.35 4.77,10.61 11.27,12.77 4.89,0 11.53,-2.95 19.92,-8.85 1.37,-0.97 2.65,-1.92 3.88,-2.85 -0.83,2.42 -1.51,4.37 -2.01,5.83 0,1.33 0.84,2.52 2.52,3.57 1.68,1.05 3.4,1.57 5.15,1.57 0.57,-1.81 1.32,-4.04 2.25,-6.69 1.98,-4.27 3.94,-8.08 5.86,-11.44 1.92,-3.35 3.91,-6.33 5.98,-8.91 2.06,-2.59 3.56,-4.46 4.5,-5.62 0.95,-1.15 2.52,-2.8 4.72,-4.93 2.2,-2.13 3.37,-3.27 3.51,-3.41 -4.82,10.28 -4.29,15.88 1.58,16.79 0,-3.15 1.34,-7.21 4.03,-12.17 2.69,-4.97 5.72,-9.76 9.07,-14.37 -0.83,-1.05 -2.04,-1.92 -3.61,-2.62z"/>
   <path class="fil0" d="M420.37 91.88c-1.61,-0.34 -3.98,-0.59 -7.13,-0.73 3.78,-5.8 8.35,-11.9 13.74,-18.29 5.38,-6.4 8.7,-9.28 9.96,-8.66 0.63,0.57 0.96,1.58 0.99,3.05 0.04,1.46 -0.31,3.25 -1.05,5.34 -0.73,2.1 -1.76,4.27 -3.09,6.5 -1.33,2.24 -3.16,4.51 -5.5,6.82 -2.35,2.31 -4.98,4.3 -7.92,5.97zm24.33 -12.1c4.12,-6.19 5.69,-12.53 4.71,-19.03 -0.63,-1.05 -1.95,-1.98 -3.98,-2.78 -2.03,-0.81 -3.95,-1.28 -5.77,-1.42 -5.8,1.82 -12.86,8.67 -21.18,20.55 3.29,-6.64 6.4,-12.3 9.33,-16.98 -0.42,-1.54 -2.35,-2.71 -5.81,-3.52 -3.46,-0.8 -5.93,-0.82 -7.4,-0.05 -0.07,0.21 -0.24,0.53 -0.52,0.95 -10.98,5.31 -20.64,12.93 -28.99,22.85 -8.35,9.93 -13.44,18.87 -15.26,26.84 -0.14,2.38 0.7,4.74 2.52,7.08 1.82,2.34 3.98,3.86 6.5,4.56 0.28,-7.83 4,-17.6 11.17,-29.3 7.16,-11.71 13.85,-19.7 20.08,-23.96 -4.55,9.79 -8.36,19.04 -11.43,27.78 -2.38,0.91 -3.57,1.99 -3.57,3.25 0,0.77 0.53,1.47 1.57,2.1 -3.14,9.3 -5.31,16.74 -6.49,22.33 0.06,1.33 0.92,2.52 2.56,3.57 1.64,1.05 3.37,1.64 5.19,1.78 4.2,-12.09 7.31,-20.48 9.33,-25.16 5.25,-0.35 10.42,-1.58 15.52,-3.67 1.54,1.54 2.31,3.7 2.31,6.5 0.07,4.75 -2.12,9.59 -6.55,14.52 -4.44,4.93 -10.68,8.34 -18.72,10.22 -7.34,2.03 -15.2,2.24 -23.59,0.63 0.35,2.45 1.45,4.88 3.3,7.29 1.85,2.41 3.83,3.83 5.93,4.24 8.31,0.07 16.49,-1.97 24.53,-6.13 8.04,-4.16 14.12,-9.59 18.24,-16.3 2.87,-4.47 4.3,-8.72 4.3,-12.74 0,-4.02 -1.5,-7.64 -4.51,-10.85 6.99,-3.92 12.55,-8.97 16.68,-15.15z"/>
   <path class="fil0" d="M464.83 86.85c-1.4,1.4 -2.64,3.09 -3.73,5.09 -1.08,1.99 -1.61,4.18 -1.57,6.55 0.04,2.38 0.96,4.3 2.78,5.77 -1.75,5.52 -3.98,10.59 -6.71,15.2 -2.73,4.61 -5.63,7.9 -8.7,9.86 -0.63,0.07 -1.09,-0.02 -1.37,-0.27 -0.28,-0.24 -0.52,-0.75 -0.73,-1.52 -0.91,-2.58 -0.28,-7.75 1.89,-15.51 0.7,-2.24 2.01,-5.28 3.93,-9.13 1.92,-3.84 4.26,-7.53 7.02,-11.06 2.76,-3.53 5.16,-5.26 7.19,-5.19l0 0.21zm44.56 26c-3.22,2.45 -7.38,7.17 -12.48,14.16 -3.22,-2.59 -5.11,-10.94 -5.66,-25.06 2.93,-2.73 10.1,-8.46 21.49,-17.19 -0.14,-0.63 -0.72,-1.44 -1.73,-2.42 -1.01,-0.97 -2.08,-1.46 -3.2,-1.46 -0.56,0 -2.67,1.43 -6.34,4.3 -3.67,2.86 -7.11,5.87 -10.33,9.01 0,-0.07 0.21,-3.67 0.63,-10.8 -0.07,-1.05 -1.56,-1.69 -4.46,-1.94 -2.9,-0.24 -5.29,-0.26 -7.18,-0.04 0,0.57 0.07,3.76 0.21,9.57 0,0.07 0.01,0.13 0.01,0.2 -1.95,0.72 -4.22,1.41 -6.82,2.07 0.21,-3.08 0.1,-5.35 -0.32,-6.82 -0.91,-2.16 -2.65,-3.68 -5.24,-4.56 -2.59,-0.87 -4.75,-1.17 -6.5,-0.89 -4.61,1.61 -8.96,4.83 -13.05,9.65 -4.09,4.82 -7.24,9.82 -9.44,14.99 -2.2,5.17 -3.55,9.89 -4.04,14.16 -0.7,6.64 1.09,10.94 5.35,12.89 7.69,2.24 14.47,-0.14 20.34,-7.13 3.01,-3.63 5.61,-8.09 7.81,-13.37 2.21,-5.27 3.73,-10.36 4.56,-15.25 1.61,-0.35 3.11,-0.7 4.51,-1.05 0.94,-0.23 1.94,-0.53 2.99,-0.86 0.21,3.94 0.59,7.19 1.13,9.74 -2.22,2.31 -4.88,5.02 -7.97,8.1 -3.1,3.09 -5.67,5.68 -7.74,7.76 -2.06,2.09 -3.54,3.58 -4.42,4.48 -0.37,0.25 -0.66,0.53 -0.89,0.81 -0.22,0.3 -0.42,0.55 -0.61,0.78 -0.17,0.22 -0.31,0.48 -0.4,0.77 -0.09,0.29 -0.16,0.53 -0.2,0.72 -0.05,0.2 -0.09,0.49 -0.14,0.87 -0.04,0.39 -0.09,0.66 -0.13,0.82 -0.05,0.16 -0.07,0.49 -0.07,0.97 0,0.48 0,0.85 0,1.11l22.97 -21.4c2.26,13.14 6.76,20.51 13.52,22.13 0.13,-0.14 1.2,-1.29 3.19,-3.46 2,-2.16 3.57,-3.86 4.72,-5.08 1.15,-1.23 2.66,-2.76 4.51,-4.62 1.85,-1.85 3.5,-3.32 4.93,-4.4 1.43,-1.08 2.64,-1.8 3.61,-2.15 -1.95,-2.24 -4.33,-2.27 -7.12,-0.11z"/>
  </g>
 </g>
</svg>
