<svg xmlns="http://www.w3.org/2000/svg" xmlns:xlink="http://www.w3.org/1999/xlink" class="svg-sprite"><symbol class="svg-sprite" id="arrow-down" viewBox="0 0 100 100"><path id="path" fill-rule="nonzero" d="M88.84 61.73l-3.89-3.89-30.71 31.18V0h-7.02v89.02L15.88 57.84 12 61.73 50.42 100z"/></symbol><symbol class="svg-sprite" id="arrow-right" viewBox="0 0 100 100"><path id="path" fill-rule="nonzero" d="M61.73 12l-3.89 3.89L89.02 46.6H0v7.02h89.02L57.84 84.96l3.89 3.88L100 50.42z"/></symbol><symbol class="svg-sprite" id="border" viewBox="0 0 13.73 1474.1"><path d="M13.22 45.28a9.934 9.934 0 01-.41-5.88c.25-1.1.24-2.2-.02-3.3-.26-1.09-.25-2.19-.14-3.3.06-.66.05-1.33-.03-1.99-.16-1.34-.05-2.65.22-3.96.18-.87.35-1.75.4-2.63.15-2.76.7-5.5.29-8.27a2.43 2.43 0 010-.66c.14-.99.3-1.98-.45-2.84-.13-.15-.14-.42-.16-.63-.25-2.53-.67-5.05-.51-7.62.03-.55.02-1.11-.03-1.66-.13-1.46-1.61-2.78-2.99-2.49-2.19.45-4.42.4-6.6.76C1.84.96.91 1.02 0 .85V1474.1c1.92 0 3.84.01 5.75 0 .99-.01 1.99-.11 2.97-.28.81-.14 1.46-.66 1.65-1.47.31-1.32 1.04-2.44 1.57-3.64.82-.66.87-.88.37-1.25-1.28-.95-1.75-2.18-1.74-3.74.01-1.44-.2-2.87-.25-4.31-.1-2.99-.53-5.96-.35-8.96.03-.54-.01-1.13-.19-1.63-.35-.97-.33-1.94-.3-2.95.03-1.22-.03-2.44-.09-3.65-.12-2.44-.18-4.86.29-7.29.23-1.19.26-2.42.25-3.64-.02-2.1-.24-4.21-.19-6.31.08-3.43.03-6.85-.35-10.27-.16-1.44 0-2.88.36-4.29.41-1.61 1.11-3.18 1.26-4.8.14-1.63-.26-3.3-.4-4.95-.09-.99-.06-2-.24-2.98-.54-2.87-.49-5.73.01-8.59.13-.76.21-1.55.18-2.31-.13-2.65-.22-5.31-.39-7.95-.19-2.99-.16-5.98-.16-8.97 0-1.21.21-2.42.32-3.64.1-1.1.31-2.2.29-3.3-.04-2.77.1-5.54-.32-8.3-.15-.97-.05-2 .08-2.98.22-1.67.18-3.3-.1-4.96-.38-2.2-.3-4.43.41-6.57.34-1.01.36-1.93-.08-2.9-.29-.62-.24-1.28-.15-1.96.39-2.99.31-5.97-.17-8.94-.18-1.11-.17-2.19 0-3.3.6-3.97.3-7.96.28-11.95-.47-1.74-.3-3.51-.35-5.28-.03-1.12-.03-2.19.4-3.26.2-.49.22-1.08.2-1.62a118.4 118.4 0 00-.32-5.64c-.11-1.24.02-2.43.3-3.62l.45-1.94.02.03.24-.21c-.09.06-.17.12-.26.17-.34-.57-.51-1.18-.47-1.86.15-2.54-.08-5.08.12-7.62.09-1.19-.16-2.43-.36-3.62-.15-.88-.27-1.74-.15-2.64.06-.44.09-.9.01-1.32-.58-3.3-.39-6.63-.42-9.95-.02-1.44.02-2.88.32-4.3.21-.99.16-1.97.06-2.97-.5-4.97-.47-9.96.03-14.93.3-2.99.35-5.97-.13-8.94-.21-1.32-.25-2.66-.02-3.97.31-1.76.34-3.53.35-5.3.03-3.88.08-7.76.11-11.63 0-.66.01-1.34-.09-1.99-.26-1.77-.16-3.54.01-5.3.16-1.66.15-3.32.02-4.98-.16-2.2-.41-4.4-.12-6.62.1-.75-.07-1.55-.21-2.3-.31-1.65-.37-3.31-.09-4.96.36-2.09.37-4.19.38-6.3.01-2.11.08-4.21.04-6.32-.02-1.44-.17-2.87-.26-4.3-.06-.88-.24-1.77-.15-2.64.45-4.75.39-9.52.41-14.28.01-1.66-.15-3.32-.2-4.98-.02-.88.01-1.76.05-2.65.13-2.99.46-5.98.36-8.96-.08-2.43-.1-4.87-.16-7.3-.03-1.44-.02-2.87.26-4.3.15-.74.06-1.54.03-2.31-.09-2.21-.25-4.42-.3-6.64-.05-2.2-.42-4.42.25-6.6.03-.1.01-.22.01-.33-.09-2.87.14-5.75-.17-8.62-.22-1.98-.43-3.98-.4-5.96.03-2.43.22-4.87.53-7.29.27-2.11.43-4.18.01-6.28-.22-1.09-.28-2.21-.02-3.3.26-1.1.23-2.19.15-3.3-.09-1.33-.07-2.65.08-3.98.24-2.09.29-4.2-.05-6.3-.61-3.75-.56-7.5 0-11.25.2-1.33.18-2.64-.09-3.96-.18-.87-.36-1.75-.35-2.63.04-4.43.14-8.85.23-13.28.01-.33.08-.66.1-.99.03-.44.09-.89.03-1.33-.44-3.09-.24-6.19-.22-9.29.01-1.44.12-2.91-.12-4.31-.41-2.44-.27-4.86-.05-7.28.25-2.76.35-5.52.13-8.29-.15-1.88-.12-3.76.33-5.62.24-.98.34-1.99.14-2.97-.29-1.42-.22-2.88-.5-4.28-.27-1.35-.21-2.64-.01-3.95.23-1.54.42-3.06.17-4.62-.1-.64 0-1.33.13-1.98.29-1.55.26-3.08-.08-4.62-.24-1.09-.31-2.2-.06-3.3.41-1.86.42-3.74.41-5.62-.01-2.33.05-4.65.03-6.98-.02-1.33-.05-2.67-.26-3.97-.3-1.88-.36-3.74-.14-5.63.1-.88.12-1.77.2-2.65.1-1.02-.03-1.99-.45-2.92-.77-1.7-.73-3.41-.24-5.19.86-3.13 1-6.34.86-9.56-.03-.66-.09-1.33-.09-1.99 0-.55-.07-1.15.1-1.64.55-1.52.46-3.02.18-4.58-.2-1.08-.12-2.21-.16-3.31-.03-.89.05-1.79-.1-2.65-.2-1.23-.22-2.41.15-3.61.27-.87.28-1.74-.12-2.59-.34-.73-.32-1.48-.23-2.28.15-1.21.2-2.42.27-3.64.07-1.1-.02-2.24.2-3.31.43-2.08.44-4.18.69-6.27.12-1.01.11-1.98-.31-2.93-.65-1.49-.63-3.02-.13-4.55.25-.75.28-1.48.19-2.28-.21-1.86-.38-3.74-.4-5.62-.01-1.32.24-2.64.38-3.96.15-1.43-.31-2.87.03-4.31.12-.53.12-1.1.13-1.65.01-1.66.01-3.32-.03-4.98-.03-1.33-.06-2.66-.23-3.97-.16-1.22-.29-2.41-.1-3.64.07-.43.06-.89.01-1.32-.48-4.31-.28-8.63-.39-12.95-.04-1.43.11-2.88.31-4.3.33-2.32.38-4.64.06-6.95-.26-1.88-.28-3.75.02-5.62.29-1.77.29-3.53-.07-5.29-.18-.87-.34-1.76-.16-2.64.35-1.63.46-3.29.59-4.94.05-.65.32-1.28.5-1.92l.02.03v-.72l-.02.03c-.05-.33-.2-.68-.13-.98.33-1.22.24-2.39-.1-3.6-.2-.73-.34-1.56-.21-2.29.33-1.76.05-3.54.28-5.3.08-.65.06-1.34-.08-1.98-.43-1.88-.29-3.75-.02-5.62.17-1.21.33-2.42.07-3.64-.22-1.03-.05-1.98.5-2.87.44-.71.46-1.46.24-2.24-.12-.43-.22-.86-.38-1.27a9.934 9.934 0 01-.41-5.88c.25-1.1.24-2.2-.02-3.3-.26-1.09-.25-2.19-.14-3.3.06-.66.05-1.33-.03-1.99-.16-1.34-.05-2.65.22-3.96.18-.87.35-1.75.4-2.63.15-2.76.7-5.5.29-8.27a2.43 2.43 0 010-.66c.14-.99.3-1.98-.45-2.84-.13-.15-.14-.42-.16-.63-.07-.69-.15-1.38-.23-2.07.05-.11.11-.21.15-.32.82-.66.87-.88.37-1.25a4.94 4.94 0 01-.74-.69c-.09-1.09-.14-2.18-.07-3.28.03-.55.02-1.11-.03-1.66-.07-.77-.51-1.49-1.12-1.96l-.03-.45c-.1-2.99-.53-5.96-.35-8.96.03-.54-.01-1.13-.19-1.63-.35-.97-.33-1.94-.3-2.95.03-1.22-.03-2.43-.09-3.65-.12-2.44-.18-4.86.29-7.29.23-1.19.26-2.42.25-3.64-.02-2.1-.24-4.21-.19-6.31.08-3.43.03-6.85-.35-10.27-.16-1.44 0-2.88.36-4.29.41-1.61 1.11-3.18 1.26-4.8.14-1.63-.26-3.3-.4-4.95-.09-.99-.06-2-.24-2.98-.54-2.87-.49-5.73.01-8.59.13-.76.21-1.55.18-2.31-.13-2.65-.22-5.31-.39-7.95-.19-2.99-.16-5.98-.16-8.97 0-1.21.21-2.42.32-3.64.1-1.1.31-2.2.29-3.3-.04-2.77.1-5.54-.32-8.3-.15-.97-.05-2 .08-2.98.22-1.67.18-3.3-.1-4.96-.38-2.2-.3-4.43.41-6.57.34-1.01.36-1.93-.08-2.9-.29-.62-.24-1.28-.15-1.96.39-2.99.31-5.97-.17-8.94-.18-1.11-.17-2.19 0-3.3.6-3.97.3-7.96.28-11.95-.47-1.74-.3-3.51-.35-5.28-.03-1.12-.03-2.19.4-3.26.2-.49.22-1.08.2-1.62a118.4 118.4 0 00-.32-5.64c-.11-1.24.02-2.43.3-3.62l.45-1.94.02.03.24-.21c-.09.06-.17.12-.26.17-.34-.57-.51-1.18-.47-1.86.15-2.54-.08-5.08.12-7.62.09-1.19-.16-2.43-.36-3.62-.15-.88-.27-1.74-.15-2.64.06-.44.09-.9.01-1.32-.58-3.3-.39-6.63-.42-9.95-.02-1.44.02-2.88.32-4.3.21-.99.16-1.97.06-2.97-.5-4.97-.47-9.96.03-14.93.3-2.99.35-5.97-.13-8.94-.21-1.32-.25-2.66-.02-3.97.31-1.76.34-3.53.35-5.3.03-3.88.08-7.76.11-11.63 0-.66.01-1.34-.09-1.99-.26-1.77-.16-3.54.01-5.3.16-1.66.15-3.32.02-4.98-.16-2.2-.41-4.4-.12-6.62.1-.75-.07-1.55-.21-2.3-.31-1.65-.37-3.31-.09-4.96.36-2.09.37-4.19.38-6.3.01-2.11.08-4.21.04-6.32-.02-1.44-.17-2.87-.26-4.3-.06-.88-.24-1.77-.15-2.64.45-4.75.39-9.52.41-14.28.01-1.66-.15-3.32-.2-4.98-.02-.88.01-1.76.05-2.65.13-2.99.46-5.98.36-8.96-.08-2.43-.1-4.87-.16-7.3-.03-1.44-.02-2.87.26-4.3.15-.74.06-1.54.03-2.31-.09-2.21-.25-4.42-.3-6.64-.05-2.2-.42-4.42.25-6.6.03-.1.01-.22.01-.33-.09-2.87.14-5.75-.17-8.62-.22-1.98-.43-3.98-.4-5.96.03-2.43.22-4.87.53-7.29.27-2.11.43-4.18.01-6.28-.22-1.09-.28-2.21-.02-3.3.26-1.1.23-2.19.15-3.3-.09-1.33-.07-2.65.08-3.98.24-2.09.29-4.2-.05-6.3-.61-3.75-.56-7.5 0-11.25.2-1.33.18-2.64-.09-3.96-.18-.87-.36-1.75-.35-2.63.04-4.43.14-8.85.23-13.28.01-.33.08-.66.1-.99.03-.44.09-.89.03-1.33-.44-3.09-.24-6.19-.22-9.29.01-1.44.12-2.91-.12-4.31-.41-2.44-.27-4.86-.05-7.28.25-2.76.35-5.52.13-8.29-.15-1.88-.12-3.76.33-5.62.24-.98.34-1.99.14-2.97-.29-1.42-.22-2.88-.5-4.28-.27-1.35-.21-2.64-.01-3.95.23-1.54.42-3.06.17-4.62-.1-.64 0-1.33.13-1.98.29-1.55.26-3.08-.08-4.62-.24-1.09-.31-2.2-.06-3.3.41-1.86.42-3.74.41-5.62-.01-2.33.05-4.65.03-6.98-.02-1.33-.05-2.67-.26-3.97-.3-1.88-.36-3.74-.14-5.63.1-.88.12-1.77.2-2.65.1-1.02-.03-1.99-.45-2.92-.77-1.7-.73-3.41-.24-5.19.86-3.13 1-6.34.86-9.56-.03-.66-.09-1.33-.09-1.99 0-.55-.07-1.15.1-1.64.55-1.52.46-3.02.18-4.58-.2-1.08-.12-2.21-.16-3.31-.03-.89.05-1.79-.1-2.65-.2-1.23-.22-2.41.15-3.61.27-.87.28-1.74-.12-2.59-.34-.73-.32-1.49-.23-2.28.15-1.21.2-2.42.27-3.64.07-1.1-.02-2.24.2-3.31.43-2.08.44-4.18.69-6.27.12-1.01.11-1.98-.31-2.93-.65-1.49-.63-3.02-.13-4.55.25-.75.28-1.48.19-2.28-.21-1.86-.38-3.74-.4-5.62-.01-1.32.24-2.64.38-3.96.15-1.43-.31-2.87.03-4.31.12-.53.12-1.1.13-1.65.01-1.66.01-3.32-.03-4.98-.03-1.33-.06-2.66-.23-3.97-.16-1.22-.29-2.41-.1-3.64.07-.43.06-.89.01-1.32-.48-4.31-.28-8.63-.39-12.95-.04-1.43.11-2.88.31-4.3.33-2.32.38-4.64.06-6.95-.26-1.88-.28-3.75.02-5.62.29-1.77.29-3.53-.07-5.29-.18-.87-.34-1.76-.16-2.64.35-1.63.46-3.29.59-4.94.05-.65.32-1.28.5-1.92l.02.03v-.72l-.02.03c-.05-.33-.2-.68-.13-.98.33-1.22.24-2.39-.1-3.6-.2-.73-.34-1.56-.21-2.29.33-1.76.05-3.54.28-5.3.08-.65.06-1.34-.08-1.98-.43-1.88-.29-3.75-.02-5.62.17-1.21.33-2.42.07-3.64-.22-1.03-.05-1.98.5-2.87.44-.71.46-1.46.24-2.24-.02-.5-.13-.93-.28-1.34z"/></symbol><symbol class="svg-sprite" id="chevron-left" viewBox="0 0 8 12"><g id="Page-1" stroke="none" stroke-width="1" fill-rule="evenodd"><g id="chevron" fill-rule="nonzero"><path id="Shape" d="M6.1 12l1.4-1.4L2.9 6l4.6-4.6L6.1 0l-6 6z"/></g></g></symbol><symbol class="svg-sprite" id="chevron-right" viewBox="0 0 8 12"><g id="Page-1" stroke="none" stroke-width="1" fill-rule="evenodd"><g id="chevron" fill-rule="nonzero"><path id="Shape" d="M1.5 0L.1 1.4 4.7 6 .1 10.6 1.5 12l6-6z"/></g></g></symbol><symbol class="svg-sprite" id="cross" viewBox="0 0 30 29"><g id="Page-1" stroke="none" stroke-width="1" fill-rule="evenodd"><g id="Artboard" transform="translate(-3 -4)"><path d="M28.96 4.004l3.536 3.536-10.96 10.96 10.96 10.96-3.536 3.536L18 22.036 7.04 32.995 3.504 29.46l10.96-10.96L3.504 7.54 7.04 4.004 18 14.964l10.96-10.96z" id="Combined-Shape"/></g></g></symbol><symbol class="svg-sprite" id="facebook" viewBox="0 0 504 504"><g id="Artboard" stroke="none" stroke-width="1" fill-rule="evenodd"><g id="facebook" transform="translate(116)" fill-rule="nonzero"><path d="M8.303 268.423h56.41v227.452c0 4.491 3.722 8.124 8.303 8.124h95.665a8.2 8.2 0 005.832-2.339 8.23 8.23 0 002.472-5.785V269.497h64.868a8.25 8.25 0 008.245-7.206l9.844-83.72a8.017 8.017 0 00-2.047-6.347 8.374 8.374 0 00-6.198-2.714h-74.712v-52.494c0-15.818 8.713-23.825 25.865-23.825h48.847a8.198 8.198 0 005.838-2.345A8.23 8.23 0 00260 85.048V8.183c0-4.492-3.703-8.124-8.303-8.124h-67.305a73.981 73.981 0 00-3.1-.06c-11.675 0-52.257 2.247-84.34 31.13C61.418 63.156 66.35 101.49 67.519 108.13v61.379H8.323a8.198 8.198 0 00-5.844 2.332A8.23 8.23 0 000 177.634v82.665c0 4.492 3.703 8.124 8.303 8.124z" id="Shape"/></g></g></symbol><symbol class="svg-sprite" id="instagram" viewBox="0 0 504 504"><defs><path id="path-1" d="M0 .159h503.841V503.94H0z"/></defs><g id="Artboard" stroke="none" stroke-width="1" fill-rule="evenodd"><g id="instagram"><g id="Clipped"><mask id="mask-2"><use xmlns:xlink="http://www.w3.org/1999/xlink" xlink:href="#path-1"/></mask><path d="M251.921.159c-68.418 0-76.997.29-103.867 1.516-26.814 1.223-45.127 5.482-61.151 11.71-16.566 6.437-30.615 15.051-44.621 29.056-14.005 14.006-22.619 28.055-29.056 44.621-6.228 16.024-10.487 34.337-11.71 61.151C.29 175.083 0 183.662 0 252.08c0 68.417.29 76.996 1.516 103.866 1.223 26.814 5.482 45.127 11.71 61.151 6.437 16.566 15.051 30.615 29.056 44.621 14.006 14.005 28.055 22.619 44.621 29.057 16.024 6.227 34.337 10.486 61.151 11.709 26.87 1.226 35.449 1.516 103.867 1.516 68.417 0 76.996-.29 103.866-1.516 26.814-1.223 45.127-5.482 61.151-11.709 16.566-6.438 30.615-15.052 44.621-29.057 14.005-14.006 22.619-28.055 29.057-44.621 6.227-16.024 10.486-34.337 11.709-61.151 1.226-26.87 1.516-35.449 1.516-103.866 0-68.418-.29-76.997-1.516-103.867-1.223-26.814-5.482-45.127-11.709-61.151-6.438-16.566-15.052-30.615-29.057-44.621-14.006-14.005-28.055-22.619-44.621-29.056-16.024-6.228-34.337-10.487-61.151-11.71C328.917.449 320.338.159 251.921.159zm0 45.391c67.265 0 75.233.257 101.797 1.469 24.562 1.12 37.901 5.224 46.778 8.674 11.759 4.57 20.151 10.029 28.966 18.845 8.816 8.815 14.275 17.207 18.845 28.966 3.45 8.877 7.554 22.216 8.674 46.778 1.212 26.564 1.469 34.532 1.469 101.798 0 67.265-.257 75.233-1.469 101.797-1.12 24.562-5.224 37.901-8.674 46.778-4.57 11.759-10.029 20.151-18.845 28.966-8.815 8.816-17.207 14.275-28.966 18.845-8.877 3.45-22.216 7.554-46.778 8.674-26.56 1.212-34.527 1.469-101.797 1.469-67.271 0-75.237-.257-101.798-1.469-24.562-1.12-37.901-5.224-46.778-8.674-11.759-4.57-20.151-10.029-28.966-18.845-8.815-8.815-14.275-17.207-18.845-28.966-3.45-8.877-7.554-22.216-8.674-46.778-1.212-26.564-1.469-34.532-1.469-101.797 0-67.266.257-75.234 1.469-101.798 1.12-24.562 5.224-37.901 8.674-46.778 4.57-11.759 10.029-20.151 18.845-28.966 8.815-8.816 17.207-14.275 28.966-18.845 8.877-3.45 22.216-7.554 46.778-8.674 26.564-1.212 34.532-1.469 101.798-1.469z" id="Shape" fill-rule="nonzero" mask="url(#mask-2)"/></g><path d="M251.921 336.053c-46.378 0-83.974-37.596-83.974-83.973 0-46.378 37.596-83.974 83.974-83.974 46.377 0 83.973 37.596 83.973 83.974 0 46.377-37.596 83.973-83.973 83.973zm0-213.338c-71.447 0-129.365 57.918-129.365 129.365 0 71.446 57.918 129.364 129.365 129.364 71.446 0 129.364-57.918 129.364-129.364 0-71.447-57.918-129.365-129.364-129.365zm164.706-5.111c0 16.696-13.535 30.23-30.231 30.23-16.695 0-30.23-13.534-30.23-30.23 0-16.696 13.535-30.231 30.23-30.231 16.696 0 30.231 13.535 30.231 30.231z" id="Shape" fill-rule="nonzero"/></g></g></symbol><symbol class="svg-sprite" id="logo" viewBox="0 0 424 284"><g id="Page-1" stroke="none" stroke-width="1" fill="none" fill-rule="evenodd"><g id="logo"><path id="Rectangle" fill="#1D1D1B" fill-rule="nonzero" d="M.68 0h422.86v283.44H.68z"/><path id="Rectangle" fill="#FFD600" fill-rule="nonzero" d="M5.85 110.49h412.51v167.44H5.85z"/><path id="Rectangle" fill="#FFF" fill-rule="nonzero" d="M16.84 122.09H92.5v2.49H16.84z"/><path id="Rectangle" fill="#FFF" fill-rule="nonzero" d="M16.84 139.36H92.5v2.49H16.84z"/><path id="Rectangle" fill="#FFF" fill-rule="nonzero" d="M16.84 156.63H92.5v2.49H16.84z"/><path id="Rectangle" fill="#FFF" fill-rule="nonzero" d="M16.84 173.9H92.5v2.49H16.84z"/><path id="Rectangle" fill="#FFF" fill-rule="nonzero" d="M16.84 191.16H92.5v2.49H16.84z"/><path id="Rectangle" fill="#FFF" fill-rule="nonzero" d="M16.84 208.43H92.5v2.49H16.84z"/><path id="Rectangle" fill="#FFF" fill-rule="nonzero" d="M16.84 225.7H92.5v2.49H16.84z"/><path id="Rectangle" fill="#FFF" fill-rule="nonzero" d="M16.84 242.97H92.5v2.49H16.84z"/><path id="Rectangle" fill="#FFF" fill-rule="nonzero" d="M16.84 260.24H92.5v2.49H16.84z"/><path id="Rectangle" fill="#FFF" fill-rule="nonzero" d="M317.17 122.09h90.66v2.49h-90.66z"/><path id="Rectangle" fill="#FFF" fill-rule="nonzero" d="M317.17 139.36h90.66v2.49h-90.66z"/><path id="Rectangle" fill="#FFF" fill-rule="nonzero" d="M317.17 156.63h90.66v2.49h-90.66z"/><path id="Rectangle" fill="#FFF" fill-rule="nonzero" d="M317.17 173.9h90.66v2.49h-90.66z"/><path id="Rectangle" fill="#FFF" fill-rule="nonzero" d="M317.17 191.16h90.66v2.49h-90.66z"/><path id="Rectangle" fill="#FFF" fill-rule="nonzero" d="M317.17 208.43h90.66v2.49h-90.66z"/><path id="Rectangle" fill="#FFF" fill-rule="nonzero" d="M317.17 225.7h90.66v2.49h-90.66z"/><path id="Rectangle" fill="#FFF" fill-rule="nonzero" d="M317.17 242.97h90.66v2.49h-90.66z"/><path id="Rectangle" fill="#FFF" fill-rule="nonzero" d="M317.17 260.24h90.66v2.49h-90.66z"/><path id="Rectangle" fill="#00833E" fill-rule="nonzero" d="M5.85 5.51h412.51v100.54H5.85z"/><path d="M372.16 180.9s-43.27-24.48-76.74-13.11c-33.9 11.52-56.25 16.75-79.16 16.67-20.29-.08-41-4.13-70.59-14.34-54.31-18.73-87.42 12.67-87.42 12.67l9.17 18.33-16.09 10.63 24.43 16.87-2.08 28.79 43.77-23.3-2.84-13.23c17.63-.31 39.06 5.62 46.91 7.87 5.65 1.62 36.63 12.5 58.57 12.87 11.33.2 41.32-8.15 50.83-11.66 26.17-9.67 46-7.17 46-7.17l-1.57 11.34 42.63 23-1.57-31.17 22-14.48-14.8-12.28 8.55-18.3z" id="Path" fill="#1D1D1B" fill-rule="nonzero"/><path d="M78.67 249.87l1.25-22.5 1.5 2.75 26.5 4-29.25 15.75zm-9.75-45l-10.75 7 19.75 12.25-9-19.25zm65.25 13c8.5 1.25 17.75 3.41 54.25 13.42 9.45 2.59 19.43 5.81 32.84 5.33 9.22-.32 20.08-2.83 33.5-6.83 17.33-5.17 31-8.83 41.41-11.17 19-4.25 50.25 4.34 50.25 4.34l19.67-40s-42.41-19.48-65.17-11.84c-31.71 10.66-48.56 18.34-86.33 18.17a153.81 153.81 0 01-47.17-7.29c-13.51-4.16-26.81-9.64-44.66-12.67-35.34-6-58.34 15.33-58.34 15.33l19.25 38.75c19.5-8.79 43.54-6.56 50.5-5.54zm219 31l-.75-25.75 18-13.75-8.5-6.75-12.75 24.75-26 6 30 15.5z" id="Shape" fill="#00833E" fill-rule="nonzero"/><path d="M26.3 61.75c.18 1.35.4 4.06.4 4.06s.5-2.59.73-4c.23-1.41 5.72-21.71 5.72-21.71h7.31S46 60.51 46.22 61.82c.22 1.31.64 3.94.64 3.94a25 25 0 01.36-4c1.48-7.23 5-21.63 5-21.63H59l-8.57 33.39H44l-7-25.79-1.16 4.64-6.24 21.15h-6.44l-8.71-33.35h7s4.68 20.31 4.85 21.58zm350.84 0c.17 1.35.4 4.06.4 4.06s.5-2.59.73-4C378.5 60.4 384 40.1 384 40.1h7.31s5.49 20.41 5.76 21.72c.27 1.31.64 3.94.64 3.94a23.78 23.78 0 01.36-4c1.48-7.23 5-21.63 5-21.63h6.76l-8.54 33.35h-6.48l-7-25.79-1.16 4.64-6.16 21.15H374l-8.71-33.35h7s4.71 20.35 4.85 21.62zM88 73.41h-8.07l-8.86-15.22-.07 1.87v13.35h-7.09V40.3h8.74c6.54 0 13.46.32 13.46 9.76 0 4.22-2.81 7.44-7.25 8.19L88 73.41zM70.92 54.54h1c4.23 0 7.21-1 7.21-4.65 0-3.65-3.08-4.44-7.13-4.44h-1l-.08 9.09zm27.45 12l-2.67 6.83h-7.41l12.64-33.28h8.14l12.59 33.28h-8.09l-2.49-6.83H98.37zm7-17.54c-.28-1-.67-2.85-.67-2.85s-.29 1.85-.58 2.9c-.34 1.23-3.91 11.64-3.91 11.64h9S105.65 50 105.37 49zm13.1-8.74h8.4s4.79 8.63 5.34 10c.55 1.37 1 2.84 1 2.84a23 23 0 011.05-2.82c.61-1.3 5.23-10 5.23-10h8.68l-11.12 17.77-.05 15.33h-7.4l-.06-15.33-11.07-17.79zm95.53 0h7.35s15.31 20.35 16.08 21.47a9.39 9.39 0 011.17 2.51V40.31h6.79l-.15 33.16-7-.06s-16-21.18-16.66-22.26a10 10 0 01-1-3.1v25.44H214V40.26zm45.93 5.67v7.29h12.13v5.62h-12.13v8.5h12.29v6.08h-19.44V40.3h19.68v5.62l-12.53.01zm26.52 27.49h-7.24V40.23H288c6.95 0 12.16 2.77 12.16 10.29 0 7-4.5 10.48-11.28 10.48h-2.44l.01 12.42zm.08-18.25h.47c3.83 0 5.9-.72 5.9-5s-2.47-4.54-6.08-4.54h-.29v9.54zm40.16-1.55V40.3h7.09v33.11h-7.09V59.53h-14.54v13.88h-7V40.3h7.09v13.31l14.45.01zm21.76-7.27v6.75h12.43V59h-12.43v8.56h12.43v5.88h-19.52V40.3h19.52v6l-12.43.05zm-164.67.73l3.66-3.37S184.77 40 178.3 40c-6.47 0-13.06 2.71-13.3 7.21a11 11 0 002.95 7.73s-5.2 4.21-5.2 8.71c0 4.5 1.26 7.45 5.48 9.41a16.37 16.37 0 0015.73-1.26c5.62-3.93 5.2-9.13 5.2-9.13l5.41-2.39a23.14 23.14 0 006-3.76l-3.92-5.66s-1.36 2.6-6.09 4.88a45.1 45.1 0 01-6.13 1.87s-4.22 1-4.92 2.25c0 0-.7 3.93 3.09 4.07 0 0 1.26 2.81-3 4.5s-7.92.64-9.47-2c-1.55-2.64.76-9.06 7.78-9.06V53s-6.18-.56-6.18-4.63c0-2.67 4.18-3.76 5.62-3.76 1.44 0 4.89-.21 6.43 2.46v.01z" id="Shape" fill="#FFF" fill-rule="nonzero"/><path d="M174.7 144.38a22.94 22.94 0 01-13.33 8.34c-22 4.2-29.27-11.85-22.87-22.68 3.18-5.38 11.8-9.17 19.54-9.17 0 0 5.73-.92 18.42 4.26 12.69 5.18 14.81 6.94 14.81 6.94s-6.39 12-6.3 18.52c0 0 7.13-8.15 8.52-10.37 1.39-2.22 3.8-5.46 4.17-6.76l3.05 2.31s-3.15 8.15-3.05 11c0 0 9.62-15.83 16.84-18.61l-2.4 6.39s-16.48 15.09-21 29.62c0 0-2.13.1 2.13-21.19 0 0-11.75 14-13.42 20.82 0 0-1.67-6.85 5.55-31.47 0 0-12.77-9.54-28-9.54a15.53 15.53 0 00-10.12 4.2 25.67 25.67 0 00-5.63 7.33c-2.64 5.4-2.49 11.55 5.17 15.53.03.02 15.55 7.47 27.92-5.47zm29.73 19c2.87-6 10.76-12.45 10.76-12.45l-2.44 6c-1.76 5.45 0 6.55 2.29 6.48 2.29-.07 7.81-5.89 7.81-5.89-1 3.17-.81 6.33 2.72 6.33 3.53 0 11.5-8.25 11.5-8.25-2.06 3.76-1.33 7.88 2.28 7.88s7.37-3.68 7.37-3.68a4.82 4.82 0 005.16 4.27c3.39-.07 12.16-6.48 14.67-6.48 3.35 0-.82 4.79-.82 4.79s4.57-3.17 2.65-5.38c-1.39-1.61-3.69-.47-11 3.54-7.07 3.89-6.48-3.47-6.48-3.47s5.74-.22 8.62-3c2.62-2.54 4.92-6.44.67-6.48-8.11-.09-13.71 10.83-13.71 10.83-9.13 6.71-6-1.4-6-1.4l6.7-14.15 40.53-.07.07-1.55-39.71-.22 3.53-7.74h-3.53l-4.35 8.18-4.27.15-.45 1.18 4 .2a78 78 0 01-3.54 7.66c-2 3.68-9.43 10.9-12.08 10.61-2.65-.29 4.62-12.34 4.62-12.34h-4.49s-1.62 4.35-3.24 6c-1.62 1.65-5.6 6.27-7.44 6.71-1.84.44 2.21-8.84 2.5-10.61.29-1.77.07-2.95-1.84-2.51-1.91.44-8.47 6-8.47 6L221.3 128l-3.61.07-16.14 35.37 2.88-.06zm53-9.43c4.86-3.31 3.46-5 2.73-5-4.82 0-7.57 6.37-7.57 6.37 1.73.68 4.81-1.32 4.81-1.32l.03-.05zm-22.77-15.53c-1.1-.53-2.57.26-3.29 1.76-.72 1.5-.4 3.13.7 3.66 1.1.53 2.57-.26 3.28-1.75s.38-3.09-.72-3.67h.03z" id="Shape" fill="#1D1D1B"/><path d="M220.2 228.47c-1.93 2.25-4.24 3.28-6.52 2.9-2.28-.38-4.12-2.15-5.24-5-1.44-3.56-1.76-8-.93-13s2.58-9.11 5.09-12c2-2.33 4.31-3.32 6.57-3 2.26.32 4.15 2.07 5.28 4.92a24.75 24.75 0 011 13 24.08 24.08 0 01-5.25 12.18zm-.15-12.92c1.3-7.81.78-12-1.69-12.36-2.47-.36-4.25 3.34-5.55 11.15-1.3 7.81-.78 11.8 1.66 12.21 2.44.41 4.28-3.21 5.58-11zM103.5 210c-.8 2.85-2.45 4.76-4.68 5.39-2.23.63-4.64-.21-6.85-2.27-2.81-2.61-5-6.52-6.35-11.39-1.35-4.87-1.52-9.35-.47-13 .81-3 2.5-4.83 4.7-5.45 2.2-.62 4.64.12 6.86 2.22a24.65 24.65 0 016.39 11.39 24 24 0 01.4 13.11zm-5.61-11.65c-2.13-7.62-4.36-11.15-6.76-10.48-2.4.67-2.44 4.83-.31 12.45 2.13 7.62 4.29 11 6.67 10.36 2.38-.64 2.51-4.68.4-12.34v.01zm149.22 27.55c-1 2.78-2.82 4.55-5.09 5-2.27.45-4.62-.57-6.65-2.8-2.6-2.83-4.47-6.9-5.44-11.86a24.41 24.41 0 01.56-13c1-2.88 2.88-4.62 5.12-5 2.24-.38 4.62.48 6.67 2.75a24.65 24.65 0 015.46 11.85 24.19 24.19 0 01-.63 13.06zm-4.68-12.06c-1.52-7.76-3.47-11.46-5.92-11-2.45.46-2.81 4.63-1.29 12.39 1.52 7.76 3.41 11.33 5.84 10.85 2.43-.48 2.94-4.48 1.37-12.24zm-137.95-27.7a1.91 1.91 0 00-.39-.52.93.93 0 00-.72-.19l-1.16.06-.18-4.1 9.61-.46.19 4.1-2.09.11a.57.57 0 00-.33.26 1.1 1.1 0 00-.07.73l4.46 17.54 1.77-18.37a.53.53 0 00-.11-.48.36.36 0 00-.36-.13l-1.89.12-.18-4 7.24-.42.18 4-1.38.07a1.18 1.18 0 00-.44.31.82.82 0 00-.19.44l-2.8 26.19-4.46.13-6.7-25.39zm34.83 7.17l-2.65-.18.3-4.64a3.28 3.28 0 00-1-2.25 4.68 4.68 0 00-1.93-1.07l-3.65-.28-.62 8.81 1.72.11s.35 0 .74-.53a1.83 1.83 0 00.43-1.13l.22-3.13 2 .17-.95 14-2.25-.24.17-2.42c0-.598-.03-1.195-.09-1.79-.13-.76-.63-.82-.63-.82l-1.62-.11-.75 9.53 4 .3a4.06 4.06 0 001.87-1.3 7.38 7.38 0 001.25-3.42l.24-3.15 2.37.24-.89 12.21-16.59-1.3.29-4.13 1.43.11a1.59 1.59 0 001.11-.21c.37-.24.4-1 .4-1l1.54-20.33a.83.83 0 00-.11-.56.45.45 0 00-.37-.24l-2-.19.28-4 16.62 1.21-.88 11.73zm30 21.39c-.008.222.04.442.14.64.122.188.296.337.5.43l2 .51-1 3.77-9.95-2.66 1-3.76 1.85.53a1.3 1.3 0 00.68-.17 1 1 0 00.45-.6l5.35-20a1.3 1.3 0 000-.68.62.62 0 00-.28-.45l-1.8-.58 1-3.77 8 2.13c6.18 1.66 8.08 3.58 6.16 10.75-1.5 5.61-4.62 7.75-9.62 6.41l-2.33-.6-2.15 8.1zm4.77-11.65c2.41.64 3.86-.29 4.64-3.18.89-3.33.3-5.25-1.77-5.8l-1.82-.47-2.44 9.09 1.39.36zm-26.53 5.73c-.08.286-.1.586-.06.88a1 1 0 00.61.82l1.82.4-.83 3.81-9.75-2.13.83-3.81 1.37.34c.337.11.706.058 1-.14a1 1 0 00.46-.88l4.29-19.6a2.57 2.57 0 00.1-.95.61.61 0 00-.39-.52l-2-.5.84-3.81 8.89 1.88c2.49.54 4.37.79 5.48 2.43 1.22 1.81 1.27 4 .7 6.61a8.71 8.71 0 01-4.62 6.24s1.92 1.24 1.31 4.63c-.61 3.39-2.1 7.66-.95 7.91.88.2 1.16-1.18 1.94-4.64l1.8.39c-.13.75-.25 1.45-.38 2.06-1 4.67-3 7.11-5.63 6.54a3.61 3.61 0 01-2.78-3.13c-.31-1.84.75-6 1.3-8.57.55-2.57-.49-3.67-1.59-4.08a10.89 10.89 0 00-2.06-.5l-1.7 8.32zM152 197c2.19.51 3.54-.4 4.17-3.13.73-3.12.14-4.86-1.78-5.31l-2.16-.5-2 8.54 1.77.4zm37.47 22.29a2.09 2.09 0 00-.08.88 1 1 0 00.58.84l1.81.45-1 3.79-9.68-2.43 1-3.78 1.36.38c.333.114.7.074 1-.11a1 1 0 00.48-.86l4.9-19.45c.115-.32.169-.66.16-1a.63.63 0 00-.38-.55l-1.93-.54 1-3.79 8.83 2.15c2.47.62 4.35.92 5.4 2.6 1.17 1.85 1.16 4 .5 6.62a8.7 8.7 0 01-4.8 6.1s1.88 1.3 1.17 4.67-2.33 7.59-1.19 7.88c.87.22 1.19-1.15 2.07-4.58l1.79.44c-.14.75-.29 1.44-.44 2-1.16 4.65-3.23 7-5.81 6.38a3.61 3.61 0 01-2.69-3.22c-.26-1.84.92-5.94 1.56-8.53.64-2.59-.38-3.67-1.47-4.12a10.53 10.53 0 00-2.05-.56l-2.09 8.34zm4.83-11.64c2.18.57 3.55-.3 4.27-3 .82-3.1.29-4.86-1.62-5.36l-2.15-.57-2.24 8.48 1.74.45zm92.68 4c.061.29.18.566.35.81a1 1 0 00.92.45l1.8-.48 1 3.78-9.65 2.54-1-3.77 1.37-.32c.35-.06.653-.273.83-.58a1 1 0 000-1l-5.11-19.4a2.58 2.58 0 00-.34-.89.61.61 0 00-.6-.3l-1.95.46-1-3.78 8.77-2.38c2.46-.65 4.25-1.29 6-.33 1.92 1.06 2.94 2.95 3.64 5.57a8.69 8.69 0 01-1.27 7.66s2.27.22 3.28 3.52c1.01 3.3 1.62 7.78 2.75 7.48.88-.23.5-1.58-.39-5l1.78-.47c.24.72.45 1.4.6 2 1.22 4.63.56 7.71-2 8.39a3.59 3.59 0 01-3.9-1.52c-1.12-1.49-2.06-5.65-2.75-8.23s-2.11-3-3.28-2.9a10.73 10.73 0 00-2.06.5l2.21 8.19zm-1.38-12.54c2.18-.54 3-2 2.29-4.68-.78-3.12-2.09-4.4-4-3.92l-2.15.54 2.12 8.5 1.74-.44zm-22.31 5.48l-2.1.67-.87-3s-.77-2.63-2.31-3.37a4.09 4.09 0 00-3.09-.36l-2.69.79 2.56 8.74.83-.28c.424-.2.774-.53 1-.94a2.49 2.49 0 00.11-1.88l-.72-2.48 1.93-.57 3.87 13.22-2 .72-.92-3a2.06 2.06 0 00-.74-1 1.31 1.31 0 00-1-.24l-1.18.2 2.27 8.16c.043.275.165.532.35.74.24.3.62.452 1 .4l1.66-.52 1.09 3.79-9.48 2.72-1.09-3.79 1.55-.43c.197-.11.36-.273.47-.47a1.29 1.29 0 00-.05-.84l-5.61-19.62a2.64 2.64 0 00-.5-1.15.6.6 0 00-.66-.1l-1.55.47-1.09-3.79 15.67-4.53 3.29 11.74zm37.9-18.12c-.21-.26-.78-.25-.78-.25l-1.58.12-.27-3.94 9.56-.64.28 3.94-1.82.14a.38.38 0 00-.29.18.74.74 0 00-.11.4l.9 12.92c.44 6.22.61 9.49 3.49 9.28a3.28 3.28 0 003.07-2.56c.36-1.28 0-4.13-.21-7.17l-.89-12.62a1.18 1.18 0 00-.29-.67 1.22 1.22 0 00-.76-.26l-1.81.2-.28-3.94 7.39-.55.24 3.91-1.55.15s-.54 0-.46.72c.26 2.54 1 11.6 1 11.8.29 4.07 1 7.85.19 10.84-.92 3.26-2.49 4.47-5.39 4.67a6.85 6.85 0 01-6.34-3.33c-1.43-2.42-1.72-5.64-2-9.93l-.85-12.08a3.83 3.83 0 00-.42-1.36l-.02.03zm19.18 21.38l1.51.2s.24.09.6-.25c.22-.24.35-.546.37-.87l2.43-20.59a.74.74 0 00-.11-.57.79.79 0 00-.54-.35l-1.59-.21.46-3.89 8.93 1.08.6 18.77 5.1-18.17 8.81 1-.46 4-1.2-.13a1.34 1.34 0 00-.95.38 1.71 1.71 0 00-.38 1l-2.39 20.06a1.41 1.41 0 00.05.64.73.73 0 00.51.42l1.69.18-.45 3.87-8.95-1.05.46-3.88 1.23.15a.75.75 0 00.64-.24c.163-.21.26-.464.28-.73l2.52-20.52-7.21 25-3.52-.47-.6-26.26-2.63 21.18a1.29 1.29 0 00.09.54.54.54 0 00.39.32l1.3.15-.46 3.88-7-.86.47-3.78z" id="Shape" fill="#1D1D1B" fill-rule="nonzero"/><path d="M219.2 226.47c-1.93 2.25-4.24 3.28-6.52 2.9-2.28-.38-4.12-2.15-5.24-5-1.44-3.56-1.76-8-.93-13s2.58-9.11 5.09-12c2-2.33 4.31-3.32 6.57-3 2.26.32 4.15 2.07 5.28 4.92a24.75 24.75 0 011 13 24.08 24.08 0 01-5.25 12.18zm-.15-12.92c1.3-7.81.78-12-1.69-12.36-2.47-.36-4.25 3.34-5.55 11.15-1.3 7.81-.78 11.8 1.66 12.21 2.44.41 4.28-3.21 5.58-11zM102.5 208c-.8 2.85-2.45 4.76-4.68 5.39-2.23.63-4.64-.21-6.85-2.27-2.81-2.61-5-6.52-6.35-11.39-1.35-4.87-1.52-9.35-.47-13 .81-3 2.5-4.83 4.7-5.45 2.2-.62 4.64.12 6.86 2.22a24.65 24.65 0 016.39 11.39 24 24 0 01.4 13.11zm-5.61-11.65c-2.13-7.62-4.36-11.15-6.76-10.48-2.4.67-2.44 4.83-.31 12.45 2.13 7.62 4.29 11 6.67 10.36 2.38-.64 2.51-4.68.4-12.34v.01zm149.22 27.55c-1 2.78-2.82 4.55-5.09 5-2.27.45-4.62-.57-6.65-2.8-2.6-2.83-4.47-6.9-5.44-11.86a24.41 24.41 0 01.56-13c1-2.88 2.88-4.62 5.12-5 2.24-.38 4.62.48 6.67 2.75a24.65 24.65 0 015.46 11.85 24.19 24.19 0 01-.63 13.06zm-4.68-12.06c-1.52-7.76-3.47-11.46-5.92-11-2.45.46-2.81 4.63-1.29 12.39 1.52 7.76 3.41 11.33 5.84 10.85 2.43-.48 2.94-4.48 1.37-12.24zm-137.95-27.7a1.91 1.91 0 00-.39-.52.93.93 0 00-.72-.19l-1.16.06-.18-4.1 9.61-.46.19 4.1-2.09.11a.57.57 0 00-.33.26 1.1 1.1 0 00-.07.73l4.46 17.54 1.77-18.37a.53.53 0 00-.11-.48.36.36 0 00-.36-.13l-1.89.12-.18-4 7.24-.42.18 4-1.38.07a1.18 1.18 0 00-.44.31.82.82 0 00-.19.44l-2.8 26.19-4.46.13-6.7-25.39zm34.83 7.17l-2.65-.18.3-4.64a3.28 3.28 0 00-1-2.25 4.68 4.68 0 00-1.93-1.07l-3.65-.28-.62 8.81 1.72.11s.35 0 .74-.53a1.83 1.83 0 00.43-1.13l.22-3.13 2 .17-.95 14-2.25-.24.17-2.42c0-.598-.03-1.195-.09-1.79-.13-.76-.63-.82-.63-.82l-1.62-.11-.75 9.53 4 .3a4.06 4.06 0 001.87-1.3 7.38 7.38 0 001.25-3.42l.24-3.15 2.37.24-.89 12.21-16.59-1.3.29-4.13 1.43.11a1.59 1.59 0 001.11-.21c.37-.24.4-1 .4-1l1.54-20.33a.83.83 0 00-.11-.56.45.45 0 00-.37-.24l-2-.19.28-4 16.62 1.21-.88 11.73zm30 21.39c-.008.222.04.442.14.64.122.188.296.337.5.43l2 .51-1 3.77-9.95-2.66 1-3.76 1.85.53a1.3 1.3 0 00.68-.17 1 1 0 00.45-.6l5.35-20a1.3 1.3 0 000-.68.62.62 0 00-.28-.45l-1.8-.58 1-3.77 8 2.13c6.18 1.66 8.08 3.58 6.16 10.75-1.5 5.61-4.62 7.75-9.62 6.41l-2.33-.6-2.15 8.1zm4.77-11.65c2.41.64 3.86-.29 4.64-3.18.89-3.33.3-5.25-1.77-5.8l-1.82-.47-2.44 9.09 1.39.36zm-26.53 5.73c-.08.286-.1.586-.06.88a1 1 0 00.61.82l1.82.4-.83 3.81-9.75-2.13.83-3.81 1.37.34c.337.11.706.058 1-.14a1 1 0 00.46-.88l4.29-19.6a2.57 2.57 0 00.1-.95.61.61 0 00-.39-.52l-2-.5.84-3.81 8.89 1.88c2.49.54 4.37.79 5.48 2.43 1.22 1.81 1.27 4 .7 6.61a8.71 8.71 0 01-4.62 6.24s1.92 1.24 1.31 4.63c-.61 3.39-2.1 7.66-.95 7.91.88.2 1.16-1.18 1.94-4.64l1.8.39c-.13.75-.25 1.45-.38 2.06-1 4.67-3 7.11-5.63 6.54a3.61 3.61 0 01-2.78-3.13c-.31-1.84.75-6 1.3-8.57.55-2.57-.49-3.67-1.59-4.08a10.89 10.89 0 00-2.06-.5l-1.7 8.32zM151 195c2.19.51 3.54-.4 4.17-3.13.73-3.12.14-4.86-1.78-5.31l-2.16-.5-2 8.54 1.77.4zm37.47 22.29a2.09 2.09 0 00-.08.88 1 1 0 00.58.84l1.81.45-1 3.79-9.68-2.43 1-3.78 1.36.38c.333.114.7.074 1-.11a1 1 0 00.48-.86l4.9-19.45c.115-.32.169-.66.16-1a.63.63 0 00-.38-.55l-1.93-.54 1-3.79 8.83 2.15c2.47.62 4.35.92 5.4 2.6 1.17 1.85 1.16 4 .5 6.62a8.7 8.7 0 01-4.8 6.1s1.88 1.3 1.17 4.67-2.33 7.59-1.19 7.88c.87.22 1.19-1.15 2.07-4.58l1.79.44c-.14.75-.29 1.44-.44 2-1.16 4.65-3.23 7-5.81 6.38a3.61 3.61 0 01-2.69-3.22c-.26-1.84.92-5.94 1.56-8.53.64-2.59-.38-3.67-1.47-4.12a10.53 10.53 0 00-2.05-.56l-2.09 8.34zm4.83-11.64c2.18.57 3.55-.3 4.27-3 .82-3.1.29-4.86-1.62-5.36l-2.15-.57-2.24 8.48 1.74.45zm92.68 4c.061.29.18.566.35.81a1 1 0 00.92.45l1.8-.48 1 3.78-9.65 2.54-1-3.77 1.37-.32c.35-.06.653-.273.83-.58a1 1 0 000-1l-5.11-19.4a2.58 2.58 0 00-.34-.89.61.61 0 00-.6-.3l-1.95.46-1-3.78 8.77-2.38c2.46-.65 4.25-1.29 6-.33 1.92 1.06 2.94 2.95 3.64 5.57a8.69 8.69 0 01-1.27 7.66s2.27.22 3.28 3.52c1.01 3.3 1.62 7.78 2.75 7.48.88-.23.5-1.58-.39-5l1.78-.47c.24.72.45 1.4.6 2 1.22 4.63.56 7.71-2 8.39a3.59 3.59 0 01-3.9-1.52c-1.12-1.49-2.06-5.65-2.75-8.23s-2.11-3-3.28-2.9a10.73 10.73 0 00-2.06.5l2.21 8.19zm-1.38-12.54c2.18-.54 3-2 2.29-4.68-.78-3.12-2.09-4.4-4-3.92l-2.15.54 2.12 8.5 1.74-.44zm-22.31 5.48l-2.1.67-.87-3s-.77-2.63-2.31-3.37a4.09 4.09 0 00-3.09-.36l-2.69.79 2.56 8.74.83-.28c.424-.2.774-.53 1-.94a2.49 2.49 0 00.11-1.88l-.72-2.48 1.93-.57 3.87 13.22-2 .72-.92-3a2.06 2.06 0 00-.74-1 1.31 1.31 0 00-1-.24l-1.18.2 2.27 8.16c.043.275.165.532.35.74.24.3.62.452 1 .4l1.66-.52 1.09 3.79-9.48 2.72-1.09-3.79 1.55-.43c.197-.11.36-.273.47-.47a1.29 1.29 0 00-.05-.84l-5.61-19.62a2.64 2.64 0 00-.5-1.15.6.6 0 00-.66-.1l-1.55.47-1.09-3.79 15.67-4.53 3.29 11.74zm37.9-18.12c-.21-.26-.78-.25-.78-.25l-1.58.12-.27-3.94 9.56-.64.28 3.94-1.82.14a.38.38 0 00-.29.18.74.74 0 00-.11.4l.9 12.92c.44 6.22.61 9.49 3.49 9.28a3.28 3.28 0 003.07-2.56c.36-1.28 0-4.13-.21-7.17l-.89-12.62a1.18 1.18 0 00-.29-.67 1.22 1.22 0 00-.76-.26l-1.81.2-.28-3.94 7.39-.55.24 3.91-1.55.15s-.54 0-.46.72c.26 2.54 1 11.6 1 11.8.29 4.07 1 7.85.19 10.84-.92 3.26-2.49 4.47-5.39 4.67a6.85 6.85 0 01-6.34-3.33c-1.43-2.42-1.72-5.64-2-9.93l-.85-12.08a3.83 3.83 0 00-.42-1.36l-.02.03zm19.18 21.38l1.51.2s.24.09.6-.25c.22-.24.35-.546.37-.87l2.43-20.59a.74.74 0 00-.11-.57.79.79 0 00-.54-.35l-1.59-.21.46-3.89 8.93 1.08.6 18.77 5.1-18.17 8.81 1-.46 4-1.2-.13a1.34 1.34 0 00-.95.38 1.71 1.71 0 00-.38 1l-2.39 20.06a1.41 1.41 0 00.05.64.73.73 0 00.51.42l1.69.18-.45 3.87-8.95-1.05.46-3.88 1.23.15a.75.75 0 00.64-.24c.163-.21.26-.464.28-.73l2.52-20.52-7.21 25-3.52-.47-.6-26.26-2.63 21.18a1.29 1.29 0 00.09.54.54.54 0 00.39.32l1.3.15-.46 3.88-7-.86.47-3.78z" id="Shape" fill="#FFF" fill-rule="nonzero"/></g></g></symbol><symbol class="svg-sprite" id="spotify" viewBox="0 0 504 504"><g id="Artboard" stroke="none" stroke-width="1" fill-rule="evenodd"><g id="spotify" transform="translate(1 1)" fill-rule="nonzero"><path d="M250.999 0C112.379 0 0 112.378 0 251.001 0 389.631 112.379 502 250.999 502 389.633 502 502 389.63 502 251.001 502 112.387 389.633.012 250.996.012l.003-.012zm115.106 362.016c-4.496 7.374-14.147 9.712-21.52 5.186-58.932-35.998-133.12-44.15-220.49-24.189-8.42 1.918-16.812-3.357-18.73-11.78-1.927-8.422 3.327-16.814 11.767-18.733 95.613-21.853 177.626-12.438 243.788 27.995 7.373 4.526 9.71 14.148 5.185 21.521zm30.722-68.354c-5.665 9.217-17.714 12.124-26.916 6.46-67.468-41.48-170.312-53.49-250.114-29.266-10.35 3.126-21.28-2.707-24.422-13.039-3.117-10.35 2.719-21.26 13.05-24.407 91.156-27.659 204.479-14.261 281.958 33.351 9.201 5.665 12.108 17.715 6.444 26.904v-.003zm2.637-71.168c-80.896-48.05-214.363-52.468-291.6-29.026-12.402 3.762-25.518-3.24-29.276-15.643-3.759-12.409 3.237-25.516 15.648-29.287 88.662-26.916 236.052-21.715 329.188 33.576 11.18 6.621 14.837 21.03 8.213 32.17-6.594 11.156-21.041 14.834-32.16 8.21h-.013z" id="Shape"/></g></g></symbol><symbol preserveAspectRatio="none" class="svg-sprite" id="texture-border" viewBox="0 50 13 1242"><path d="M.22 45.28a9.934 9.934 0 01-.41-5.88c.25-1.1.24-2.2-.02-3.3-.26-1.09-.25-2.19-.14-3.3.06-.66.05-1.33-.03-1.99-.16-1.34-.05-2.65.22-3.96.18-.87.35-1.75.4-2.63.15-2.76.7-5.5.29-8.27a2.43 2.43 0 010-.66c.14-.99.3-1.98-.45-2.84-.13-.15-.14-.42-.16-.63-.25-2.53-.67-5.05-.51-7.62.03-.55.02-1.11-.03-1.66C-.75 1.08-2.23-.24-3.61.05c-2.19.45-4.42.4-6.6.76C1.84.96.91 1.02 0 .85V1474.1c1.92 0 3.84.01 5.75 0 .99-.01 1.99-.11 2.97-.28.81-.14 1.46-.66 1.65-1.47.31-1.32 1.04-2.44 1.57-3.64.82-.66.87-.88.37-1.25-1.28-.95-1.75-2.18-1.74-3.74.01-1.44-.2-2.87-.25-4.31-.1-2.99-.53-5.96-.35-8.96.03-.54-.01-1.13-.19-1.63-.35-.97-.33-1.94-.3-2.95.03-1.22-.03-2.44-.09-3.65-.12-2.44-.18-4.86.29-7.29.23-1.19.26-2.42.25-3.64-.02-2.1-.24-4.21-.19-6.31.08-3.43.03-6.85-.35-10.27-.16-1.44 0-2.88.36-4.29.41-1.61 1.11-3.18 1.26-4.8.14-1.63-.26-3.3-.4-4.95-.09-.99-.06-2-.24-2.98-.54-2.87-.49-5.73.01-8.59.13-.76.21-1.55.18-2.31-.13-2.65-.22-5.31-.39-7.95-.19-2.99-.16-5.98-.16-8.97 0-1.21.21-2.42.32-3.64.1-1.1.31-2.2.29-3.3-.04-2.77.1-5.54-.32-8.3-.15-.97-.05-2 .08-2.98.22-1.67.18-3.3-.1-4.96-.38-2.2-.3-4.43.41-6.57.34-1.01.36-1.93-.08-2.9-.29-.62-.24-1.28-.15-1.96.39-2.99.31-5.97-.17-8.94-.18-1.11-.17-2.19 0-3.3.6-3.97.3-7.96.28-11.95-.47-1.74-.3-3.51-.35-5.28-.03-1.12-.03-2.19.4-3.26.2-.49.22-1.08.2-1.62a118.4 118.4 0 00-.32-5.64c-.11-1.24.02-2.43.3-3.62l.45-1.94.02.03.24-.21c-.09.06-.17.12-.26.17-.34-.57-.51-1.18-.47-1.86.15-2.54-.08-5.08.12-7.62.09-1.19-.16-2.43-.36-3.62-.15-.88-.27-1.74-.15-2.64.06-.44.09-.9.01-1.32-.58-3.3-.39-6.63-.42-9.95-.02-1.44.02-2.88.32-4.3.21-.99.16-1.97.06-2.97-.5-4.97-.47-9.96.03-14.93.3-2.99.35-5.97-.13-8.94-.21-1.32-.25-2.66-.02-3.97.31-1.76.34-3.53.35-5.3.03-3.88.08-7.76.11-11.63 0-.66.01-1.34-.09-1.99-.26-1.77-.16-3.54.01-5.3.16-1.66.15-3.32.02-4.98-.16-2.2-.41-4.4-.12-6.62.1-.75-.07-1.55-.21-2.3-.31-1.65-.37-3.31-.09-4.96.36-2.09.37-4.19.38-6.3.01-2.11.08-4.21.04-6.32-.02-1.44-.17-2.87-.26-4.3-.06-.88-.24-1.77-.15-2.64.45-4.75.39-9.52.41-14.28.01-1.66-.15-3.32-.2-4.98-.02-.88.01-1.76.05-2.65.13-2.99.46-5.98.36-8.96-.08-2.43-.1-4.87-.16-7.3-.03-1.44-.02-2.87.26-4.3.15-.74.06-1.54.03-2.31-.09-2.21-.25-4.42-.3-6.64-.05-2.2-.42-4.42.25-6.6.03-.1.01-.22.01-.33-.09-2.87.14-5.75-.17-8.62-.22-1.98-.43-3.98-.4-5.96.03-2.43.22-4.87.53-7.29.27-2.11.43-4.18.01-6.28-.22-1.09-.28-2.21-.02-3.3.26-1.1.23-2.19.15-3.3-.09-1.33-.07-2.65.08-3.98.24-2.09.29-4.2-.05-6.3-.61-3.75-.56-7.5 0-11.25.2-1.33.18-2.64-.09-3.96-.18-.87-.36-1.75-.35-2.63.04-4.43.14-8.85.23-13.28.01-.33.08-.66.1-.99.03-.44.09-.89.03-1.33-.44-3.09-.24-6.19-.22-9.29.01-1.44.12-2.91-.12-4.31-.41-2.44-.27-4.86-.05-7.28.25-2.76.35-5.52.13-8.29-.15-1.88-.12-3.76.33-5.62.24-.98.34-1.99.14-2.97-.29-1.42-.22-2.88-.5-4.28-.27-1.35-.21-2.64-.01-3.95.23-1.54.42-3.06.17-4.62-.1-.64 0-1.33.13-1.98.29-1.55.26-3.08-.08-4.62-.24-1.09-.31-2.2-.06-3.3.41-1.86.42-3.74.41-5.62-.01-2.33.05-4.65.03-6.98-.02-1.33-.05-2.67-.26-3.97-.3-1.88-.36-3.74-.14-5.63.1-.88.12-1.77.2-2.65.1-1.02-.03-1.99-.45-2.92-.77-1.7-.73-3.41-.24-5.19.86-3.13 1-6.34.86-9.56-.03-.66-.09-1.33-.09-1.99 0-.55-.07-1.15.1-1.64.55-1.52.46-3.02.18-4.58-.2-1.08-.12-2.21-.16-3.31-.03-.89.05-1.79-.1-2.65-.2-1.23-.22-2.41.15-3.61.27-.87.28-1.74-.12-2.59-.34-.73-.32-1.48-.23-2.28.15-1.21.2-2.42.27-3.64.07-1.1-.02-2.24.2-3.31.43-2.08.44-4.18.69-6.27.12-1.01.11-1.98-.31-2.93-.65-1.49-.63-3.02-.13-4.55.25-.75.28-1.48.19-2.28-.21-1.86-.38-3.74-.4-5.62-.01-1.32.24-2.64.38-3.96.15-1.43-.31-2.87.03-4.31.12-.53.12-1.1.13-1.65.01-1.66.01-3.32-.03-4.98-.03-1.33-.06-2.66-.23-3.97-.16-1.22-.29-2.41-.1-3.64.07-.43.06-.89.01-1.32-.48-4.31-.28-8.63-.39-12.95-.04-1.43.11-2.88.31-4.3.33-2.32.38-4.64.06-6.95-.26-1.88-.28-3.75.02-5.62.29-1.77.29-3.53-.07-5.29-.18-.87-.34-1.76-.16-2.64.35-1.63.46-3.29.59-4.94.05-.65.32-1.28.5-1.92l.02.03v-.72l-.02.03c-.05-.33-.2-.68-.13-.98.33-1.22.24-2.39-.1-3.6-.2-.73-.34-1.56-.21-2.29.33-1.76.05-3.54.28-5.3.08-.65.06-1.34-.08-1.98-.43-1.88-.29-3.75-.02-5.62.17-1.21.33-2.42.07-3.64-.22-1.03-.05-1.98.5-2.87.44-.71.46-1.46.24-2.24-.12-.43-.22-.86-.38-1.27a9.934 9.934 0 01-.41-5.88c.25-1.1.24-2.2-.02-3.3-.26-1.09-.25-2.19-.14-3.3.06-.66.05-1.33-.03-1.99-.16-1.34-.05-2.65.22-3.96.18-.87.35-1.75.4-2.63.15-2.76.7-5.5.29-8.27a2.43 2.43 0 010-.66c.14-.99.3-1.98-.45-2.84-.13-.15-.14-.42-.16-.63-.07-.69-.15-1.38-.23-2.07.05-.11.11-.21.15-.32.82-.66.87-.88.37-1.25a4.94 4.94 0 01-.74-.69c-.09-1.09-.14-2.18-.07-3.28.03-.55.02-1.11-.03-1.66-.07-.77-.51-1.49-1.12-1.96l-.03-.45c-.1-2.99-.53-5.96-.35-8.96.03-.54-.01-1.13-.19-1.63-.35-.97-.33-1.94-.3-2.95.03-1.22-.03-2.43-.09-3.65-.12-2.44-.18-4.86.29-7.29.23-1.19.26-2.42.25-3.64-.02-2.1-.24-4.21-.19-6.31.08-3.43.03-6.85-.35-10.27-.16-1.44 0-2.88.36-4.29.41-1.61 1.11-3.18 1.26-4.8.14-1.63-.26-3.3-.4-4.95-.09-.99-.06-2-.24-2.98-.54-2.87-.49-5.73.01-8.59.13-.76.21-1.55.18-2.31-.13-2.65-.22-5.31-.39-7.95-.19-2.99-.16-5.98-.16-8.97 0-1.21.21-2.42.32-3.64.1-1.1.31-2.2.29-3.3-.04-2.77.1-5.54-.32-8.3-.15-.97-.05-2 .08-2.98.22-1.67.18-3.3-.1-4.96-.38-2.2-.3-4.43.41-6.57.34-1.01.36-1.93-.08-2.9-.29-.62-.24-1.28-.15-1.96.39-2.99.31-5.97-.17-8.94-.18-1.11-.17-2.19 0-3.3.6-3.97.3-7.96.28-11.95-.47-1.74-.3-3.51-.35-5.28-.03-1.12-.03-2.19.4-3.26.2-.49.22-1.08.2-1.62a118.4 118.4 0 00-.32-5.64c-.11-1.24.02-2.43.3-3.62l.45-1.94.02.03.24-.21c-.09.06-.17.12-.26.17-.34-.57-.51-1.18-.47-1.86.15-2.54-.08-5.08.12-7.62.09-1.19-.16-2.43-.36-3.62-.15-.88-.27-1.74-.15-2.64.06-.44.09-.9.01-1.32-.58-3.3-.39-6.63-.42-9.95-.02-1.44.02-2.88.32-4.3.21-.99.16-1.97.06-2.97-.5-4.97-.47-9.96.03-14.93.3-2.99.35-5.97-.13-8.94-.21-1.32-.25-2.66-.02-3.97.31-1.76.34-3.53.35-5.3.03-3.88.08-7.76.11-11.63 0-.66.01-1.34-.09-1.99-.26-1.77-.16-3.54.01-5.3.16-1.66.15-3.32.02-4.98-.16-2.2-.41-4.4-.12-6.62.1-.75-.07-1.55-.21-2.3-.31-1.65-.37-3.31-.09-4.96.36-2.09.37-4.19.38-6.3.01-2.11.08-4.21.04-6.32-.02-1.44-.17-2.87-.26-4.3-.06-.88-.24-1.77-.15-2.64.45-4.75.39-9.52.41-14.28.01-1.66-.15-3.32-.2-4.98-.02-.88.01-1.76.05-2.65.13-2.99.46-5.98.36-8.96-.08-2.43-.1-4.87-.16-7.3-.03-1.44-.02-2.87.26-4.3.15-.74.06-1.54.03-2.31-.09-2.21-.25-4.42-.3-6.64-.05-2.2-.42-4.42.25-6.6.03-.1.01-.22.01-.33-.09-2.87.14-5.75-.17-8.62-.22-1.98-.43-3.98-.4-5.96.03-2.43.22-4.87.53-7.29.27-2.11.43-4.18.01-6.28-.22-1.09-.28-2.21-.02-3.3.26-1.1.23-2.19.15-3.3-.09-1.33-.07-2.65.08-3.98.24-2.09.29-4.2-.05-6.3-.61-3.75-.56-7.5 0-11.25.2-1.33.18-2.64-.09-3.96-.18-.87-.36-1.75-.35-2.63.04-4.43.14-8.85.23-13.28.01-.33.08-.66.1-.99.03-.44.09-.89.03-1.33-.44-3.09-.24-6.19-.22-9.29.01-1.44.12-2.91-.12-4.31-.41-2.44-.27-4.86-.05-7.28.25-2.76.35-5.52.13-8.29-.15-1.88-.12-3.76.33-5.62.24-.98.34-1.99.14-2.97-.29-1.42-.22-2.88-.5-4.28-.27-1.35-.21-2.64-.01-3.95.23-1.54.42-3.06.17-4.62-.1-.64 0-1.33.13-1.98.29-1.55.26-3.08-.08-4.62-.24-1.09-.31-2.2-.06-3.3.41-1.86.42-3.74.41-5.62-.01-2.33.05-4.65.03-6.98-.02-1.33-.05-2.67-.26-3.97-.3-1.88-.36-3.74-.14-5.63.1-.88.12-1.77.2-2.65.1-1.02-.03-1.99-.45-2.92-.77-1.7-.73-3.41-.24-5.19.86-3.13 1-6.34.86-9.56-.03-.66-.09-1.33-.09-1.99 0-.55-.07-1.15.1-1.64.55-1.52.46-3.02.18-4.58-.2-1.08-.12-2.21-.16-3.31-.03-.89.05-1.79-.1-2.65-.2-1.23-.22-2.41.15-3.61.27-.87.28-1.74-.12-2.59-.34-.73-.32-1.49-.23-2.28.15-1.21.2-2.42.27-3.64.07-1.1-.02-2.24.2-3.31.43-2.08.44-4.18.69-6.27.12-1.01.11-1.98-.31-2.93-.65-1.49-.63-3.02-.13-4.55.25-.75.28-1.48.19-2.28-.21-1.86-.38-3.74-.4-5.62-.01-1.32.24-2.64.38-3.96.15-1.43-.31-2.87.03-4.31.12-.53.12-1.1.13-1.65.01-1.66.01-3.32-.03-4.98-.03-1.33-.06-2.66-.23-3.97-.16-1.22-.29-2.41-.1-3.64.07-.43.06-.89.01-1.32-.48-4.31-.28-8.63-.39-12.95-.04-1.43.11-2.88.31-4.3.33-2.32.38-4.64.06-6.95-.26-1.88-.28-3.75.02-5.62.29-1.77.29-3.53-.07-5.29-.18-.87-.34-1.76-.16-2.64.35-1.63.46-3.29.59-4.94.05-.65.32-1.28.5-1.92l.02.03v-.72l-.02.03c-.05-.33-.2-.68-.13-.98.33-1.22.24-2.39-.1-3.6-.2-.73-.34-1.56-.21-2.29.33-1.76.05-3.54.28-5.3.08-.65.06-1.34-.08-1.98-.43-1.88-.29-3.75-.02-5.62.17-1.21.33-2.42.07-3.64-.22-1.03-.05-1.98.5-2.87.44-.71.46-1.46.24-2.24-.02-.5-.13-.93-.28-1.34z"/></symbol><symbol class="svg-sprite" id="twitter" viewBox="0 0 504 504"><g id="Artboard" stroke="none" stroke-width="1" fill-rule="evenodd"><g id="twitter" transform="translate(0 46)" fill-rule="nonzero"><path d="M490.079 7.625a206.61 206.61 0 01-65.67 25.32C405.543 12.645 378.677 0 348.945 0c-57.102 0-103.402 46.7-103.402 104.267 0 8.164.914 16.138 2.677 23.763C162.3 123.678 86.11 82.155 35.118 19.062 26.205 34.438 21.134 52.356 21.134 71.48c0 36.185 18.268 68.113 45.984 86.793-16.945-.572-32.882-5.273-46.835-13.089v1.303c0 50.513 35.654 92.67 82.93 102.265-8.662 2.383-17.796 3.654-27.244 3.654-6.678 0-13.134-.668-19.465-1.875 13.165 41.427 51.339 71.576 96.567 72.434-35.37 27.957-79.969 44.636-128.41 44.636-8.346 0-16.567-.509-24.661-1.462C45.764 395.718 100.094 413 158.488 413c190.173 0 294.173-158.91 294.173-296.725 0-4.51-.094-9.022-.315-13.502C472.598 88.128 490.142 69.765 504 48.861a205.073 205.073 0 01-59.37 16.425c21.354-12.899 37.732-33.358 45.449-57.661z" id="Shape"/></g></g></symbol><symbol class="svg-sprite" id="underline" viewBox="0 0 255.16 4.37"><path d="M239.2 4.32c.15-.04.3-.08.44-.13.66-.25 1.33-.3 2.02-.14.38.09.75.08 1.13-.01.38-.09.75-.09 1.13-.05.22.02.46.02.68-.01.46-.05.91-.02 1.36.08.3.06.6.12.9.14.94.05 1.88.24 2.84.1.07-.01.15-.01.23 0 .34.05.68.1.97-.15.05-.04.14-.05.22-.06.87-.08 1.73-.23 2.61-.18.19.01.38.01.57-.01.5-.04.95-.55.85-1.03-.06-.29-.09-.59-.12-.89h-.08c-.14-.48-.35-.93-.5-1.4-.03-.09-.14-.21-.23-.23-.62-.15-1.22-.41-1.89-.3-.34.05-.68.06-1.02.09-.58.32-1.25.28-1.88.42a.628.628 0 01-.62-.19c-.26-.27-.58-.3-.94-.26-1.1.1-2.19.18-3.29.27-.11.01-.23.01-.34-.02-.54-.17-1.05-.06-1.54.19-.28.14-.59.19-.89.14-.53-.08-1.06-.05-1.58-.09-1.02-.08-2.04-.14-3.07-.14-.23 0-.46-.03-.68-.08-.45-.1-.9-.1-1.36-.12-.49-.02-.98-.06-1.47-.12-.31-.03-.61-.05-.91.02-.48.11-.97.18-1.44.33-.41.13-.8.18-1.23.13-.64-.08-1.28-.08-1.89.21-.25.12-.52.07-.78-.02-.14-.05-.29-.11-.41-.19-.34-.23-.7-.24-1.09-.2-.37.04-.76.04-1.13-.01-.42-.06-.83-.05-1.24.05-.52.13-1.03.25-1.57.12-.14-.03-.3-.01-.45.02-.68.12-1.36.12-2.03-.11-.11-.04-.23-.03-.34-.06-.49-.13-.97-.13-1.46 0-.4.11-.81.21-1.23.04-.44-.18-.78.26-1.21.21-.04 0-.08 0-.11-.01-.59-.13-1.21-.04-1.79-.27-.19-.08-.45-.03-.67 0-.19.03-.37.1-.54.17-.33.14-.66.17-1 .08-.89-.22-1.82-.11-2.72-.28-.07-.01-.15 0-.23.01-.76.06-1.52.1-2.27.17-.23.02-.46.04-.66-.08-.28-.17-.57-.13-.88-.09-.41.06-.83.11-1.25.11-1.56-.01-3.11.02-4.66.19-1.17.12-2.34.26-3.5.45-.52.09-1.05.18-1.58.23-.66.07-1.29-.02-1.79-.53-.35-.35-.79-.44-1.26-.39-.42.04-.83.09-1.24.18-.49.1-.98.14-1.47.08-.26-.03-.53-.05-.79-.1-.8-.14-1.59-.1-2.37.09-.22.05-.44.11-.67.15-.23.04-.46.05-.67-.07-.51-.28-1.03-.45-1.63-.34-.21.04-.45-.03-.67-.09-.49-.13-.97-.1-1.46.01-.48.1-.97.16-1.46.23-.11.02-.23.02-.34-.01-.81-.23-1.66-.21-2.49-.29-.27-.03-.53-.06-.77-.18a.838.838 0 00-.77-.03c-.75.35-1.54.39-2.34.34-.38-.02-.75-.02-1.12.1-.17.06-.37.04-.56.02-.3-.02-.61-.04-.91-.1-.35-.06-.68-.04-1 .1-.29.13-.59.13-.89.02-.36-.13-.72-.22-1.11-.13-.14.04-.31.04-.45.01-.65-.15-1.28-.07-1.92.03-.3.05-.61.03-.91.04-.64.02-1.29-.03-1.94.06-.17.02-.37-.05-.55-.11-.14-.04-.27-.13-.41-.19-.22-.09-.45-.13-.66-.02-.62.29-1.25.26-1.9.15-1.21-.2-2.42-.25-3.62.05-.45.11-.9.14-1.35.02-.33-.09-.67-.12-1.02-.05-.52.1-1.03.26-1.57.13-.17-.04-.37.05-.55.11-.58.21-1.16.34-1.78.13-.2-.07-.45 0-.68-.02-.68-.05-1.39.02-1.99-.36-.39-.24-.78-.28-1.2-.19-.63.13-1.27.24-1.91.32-.29.04-.59.16-.85.31-.46.25-.93.34-1.43.23-.49-.1-.97-.12-1.47-.01-.18.04-.39.05-.56 0-.66-.21-1.34-.23-2.03-.26-.18-.01-.24-.13-.3-.28-.18-.41-.42-.5-.8-.37-.3.1-.54.28-.77.47-.28.23-.61.3-.96.28-.19-.01-.37-.06-.56-.08-.34-.04-.68-.1-1.02-.12-.53-.03-1.06-.05-1.59-.04-.38.01-.78 0-1.13.11-.99.32-2.02.36-3.02.55-.42.08-.83.01-1.22-.18-.31-.15-.62-.29-.93-.43-.38-.17-.78-.29-1.21-.31-.3-.01-.6-.1-.89-.16-.22-.05-.43-.15-.66-.19-.39-.08-.76-.02-1.09.2-.19.13-.37.27-.56.39-.43.28-.9.38-1.42.31-.38-.05-.75-.13-1.1-.28-.17-.07-.37-.13-.55-.12-.38.02-.77-.01-1.12.16-.33.16-.66.13-1 .04-.22-.06-.45-.09-.67-.15-.34-.1-.67-.08-1.01.01-.18.05-.36.11-.55.15-.78.14-1.57.3-2.37.17-.5-.08-.98-.01-1.47.07-.26.05-.54.1-.79.06-.67-.13-1.36-.16-1.97-.51-.2-.11-.43-.16-.66-.15-.53.02-1.06.02-1.59.05-.53.03-1.08.07-1.55.32-.4.21-.76.31-1.19.2-.18-.05-.38-.03-.57-.02-.35.03-.58-.08-.71-.42-.06-.15-.21-.25-.37-.19-.62.22-1.27.18-1.91.29-.17.03-.41-.01-.54-.11-.37-.29-.73-.35-1.16-.15-.21.1-.45.08-.67.02-.38-.09-.76-.01-1.13.09-.33.09-.67.17-.97.33-.59.32-1.16.3-1.75.03-.07-.03-.15-.05-.21-.08-.66-.29-1.33-.27-2-.06-.18.06-.37.11-.53.2-.38.22-.79.27-1.21.24-.53-.04-1.06-.08-1.59-.13-.42-.04-.83-.05-1.23.14-.25.12-.51.11-.78.03-.18-.05-.37-.08-.55-.14-.3-.09-.6-.1-.9 0-.11.04-.22.06-.32.11-.26.11-.52.1-.77-.04s-.51-.13-.76-.01c-.21.1-.42.21-.65.17-.48-.09-.99-.1-1.42-.38-.31-.2-.65-.18-.99-.07-.14.05-.28.11-.42.17-.23.08-.48.09-.64-.1-.46-.54-1.02-.57-1.66-.45-.45.09-.89.17-1.31.36-.38.17-.78.31-1.17.46-.22.08-.46.12-.67.01-.47-.24-1.03-.27-1.48-.58-.12-.08-.29-.14-.43-.12-.6.06-1.19.06-1.76.37-.82.43-1.71.62-2.65.37-.22-.06-.43-.16-.65-.22-.18-.05-.37-.11-.55-.09-.37.04-.67-.03-.94-.29-.18-.17-.41-.2-.64-.15-.26.05-.51.13-.77.2-.75.2-1.51.26-2.25.02-.54-.17-1.03-.17-1.55.03-.35.13-.74.17-1.08.35-.17.09-.36.1-.56.08-1.13-.13-2.27-.24-3.4-.38-.35-.04-.67-.06-.99.12-.12.07-.3.09-.44.07-.42-.05-.82-.13-1.24-.02-.42.11-.82-.14-1.24-.12-.15 0-.3.01-.45.03-.46.06-.87.14-1.26.3-.4.16-.82.19-1.23.06A1.66 1.66 0 0043 1.26c-.19.05-.38.08-.56-.01-.28-.14-.58-.17-.89-.16-.24.01-.45-.05-.65-.17-.13-.08-.27-.15-.41-.2-.37-.12-.75-.16-1.08.13-.19.17-.4.2-.64.12a.605.605 0 00-.64.13.68.68 0 01-.64.15c-.37-.08-.74-.12-1.08-.33-.39-.25-.86-.28-1.3-.39-.36-.09-.74-.08-1.11.03-.54.16-1.11.25-1.6.58-.4.27-.85.29-1.3.08-.24-.11-.49-.2-.75-.28-.37-.11-.73-.12-1.12-.02-.77.21-1.56.3-2.36.1-.22-.06-.45-.05-.68-.05-1.06-.03-2.12-.2-3.18 0-.04.01-.08.01-.11 0a4.18 4.18 0 00-1.57.22c-.25.08-.53.15-.78.1-.42-.08-.81-.16-1.22.01-.09.04-.23 0-.33-.04-.74-.26-1.49-.26-2.25-.16-.35.04-.68.04-1.02-.04-.53-.13-1.05-.11-1.58 0-.76.17-1.51.1-2.24-.18-.36-.14-.73-.19-1.12-.15-.15.02-.31.07-.45.05C9.6.67 8.9.74 8.27 1.17c-.59.16-1.18.35-1.78.04-.21-.11-.44-.12-.67-.09-.48.07-.97.14-1.46.22-.49.08-.98.09-1.46-.06-.51-.15-1.04-.25-1.55-.37C1.31.9 1.27.88 1.24.88.58.86.12 1.06.03 1.78L0 1.99c.01.27.04.54.08.81.05.28.23.5.5.57.45.11.84.35 1.25.54.23.28.3.3.43.13.33-.44.75-.6 1.28-.6.49 0 .98-.07 1.48-.08 1.02-.04 2.04-.18 3.07-.12.19.01.39 0 .56-.07.33-.12.67-.11 1.01-.1.42.01.83-.01 1.25-.03.84-.04 1.67-.06 2.5.1.41.08.83.09 1.25.08.72-.01 1.44-.08 2.16-.06 1.18.03 2.35.01 3.52-.12.49-.06.99 0 1.47.12.55.14 1.09.38 1.65.43.56.05 1.13-.09 1.7-.14.34-.03.69-.02 1.02-.08.98-.19 1.96-.17 2.95.01.26.05.53.07.79.06.91-.04 1.82-.08 2.73-.13 1.03-.07 2.05-.05 3.07-.05.42 0 .83.07 1.25.11.38.04.76.11 1.13.1.95-.01 1.9.04 2.84-.11.33-.05.68-.02 1.02.03.57.08 1.13.06 1.7-.04.76-.13 1.52-.1 2.25.14.34.12.66.12.99-.03.21-.1.44-.08.67-.05 1.02.13 2.05.1 3.06-.06.38-.06.75-.06 1.13 0 1.36.21 2.73.1 4.09.1.6-.16 1.2-.1 1.81-.12.38-.01.75-.01 1.12.14.17.07.37.08.56.07.64-.03 1.29-.06 1.93-.11.42-.04.83.01 1.24.1.22.05.44.1.67.15l-.01.01.01-.01c.2-.12.41-.18.64-.16.87.05 1.74-.03 2.61.04.41.03.83-.06 1.24-.13.3-.05.6-.09.9-.05.15.02.31.03.45 0 1.13-.2 2.27-.13 3.41-.14.49-.01.99.01 1.47.11.34.07.68.06 1.02.02 1.71-.17 3.41-.16 5.12.01 1.03.1 2.04.12 3.06-.05.45-.07.91-.08 1.36-.01.6.11 1.21.12 1.82.12 1.33.01 2.66.03 3.99.04.23 0 .46 0 .68-.03.61-.09 1.21-.06 1.82 0 .57.06 1.14.05 1.71.01.76-.06 1.51-.14 2.27-.04.26.03.53-.03.79-.07.57-.1 1.14-.13 1.7-.03.72.12 1.44.13 2.16.13.72 0 1.44.03 2.16.01.49-.01.98-.06 1.48-.09.3-.02.61-.08.91-.05 1.63.15 3.26.13 4.89.14.57 0 1.14-.05 1.71-.07.3-.01.6 0 .91.02 1.02.05 2.05.16 3.07.12.83-.03 1.67-.03 2.5-.05.49-.01.98-.01 1.47.09.25.05.53.02.79.01.76-.03 1.52-.09 2.27-.1.75-.02 1.52-.14 2.26.09.03.01.08.01.11 0 .98-.03 1.97.05 2.96-.06.68-.07 1.36-.15 2.04-.14.83.01 1.67.08 2.5.18.72.09 1.43.15 2.15 0 .37-.07.76-.1 1.13-.01.38.09.75.08 1.13.05.45-.03.91-.02 1.36.03.72.08 1.44.1 2.16-.02 1.29-.21 2.57-.19 3.86 0 .46.07.91.06 1.36-.03.3-.06.6-.12.9-.12 1.52.01 3.03.05 4.55.08.11 0 .23.03.34.04.15.01.31.03.45.01 1.06-.15 2.12-.08 3.19-.08.49 0 1 .04 1.48-.04.84-.14 1.66-.09 2.49-.02.95.09 1.89.12 2.84.04.64-.05 1.29-.04 1.93.11.33.08.68.12 1.02.05.49-.1.99-.08 1.47-.17.46-.09.9-.07 1.36 0 .53.08 1.05.15 1.59.06.22-.04.46 0 .68.04.53.1 1.06.09 1.58-.03.38-.08.75-.1 1.13-.02.64.14 1.28.14 1.93.14.8 0 1.6.02 2.39.01.45-.01.91-.02 1.36-.09.64-.1 1.28-.12 1.93-.05.3.03.61.04.91.07.35.03.68-.01 1-.15.58-.26 1.17-.25 1.78-.08 1.07.29 2.17.34 3.28.29.23-.01.46-.03.68-.03.19 0 .39-.03.56.04.52.19 1.03.16 1.57.06.37-.07.76-.04 1.14-.05.3-.01.61.02.91-.03.42-.07.83-.08 1.24.05.3.09.6.1.89-.04.25-.12.51-.11.78-.08.41.05.83.07 1.25.09.38.02.77-.01 1.13.07.71.15 1.43.15 2.15.24.35.04.68.04 1-.11.51-.22 1.03-.22 1.56-.04.26.09.51.1.78.07.64-.07 1.28-.13 1.93-.14.45-.01.91.08 1.36.13.49.05.98-.1 1.48.01.18.04.38.04.56.04.57 0 1.14.01 1.71-.01.45-.01.91-.02 1.36-.08.42-.05.83-.1 1.25-.03.15.02.3.02.45 0 1.48-.17 2.96-.1 4.44-.13.49-.01.99.04 1.47.11.8.11 1.59.13 2.38.02.64-.09 1.29-.1 1.93.01.61.1 1.21.1 1.81-.03.3-.06.6-.12.9-.05.56.12 1.13.16 1.69.2.22.02.44.11.66.17l-.01.01h.25-.25l.01-.01h.23c.11-.02.23-.07.33-.04.42.11.82.08 1.23-.03.25-.07.54-.12.79-.07.6.11 1.21.02 1.82.1.22.03.46.02.68-.03.64-.15 1.29-.1 1.93-.01.42.06.83.11 1.25.03.35-.07.68-.02.98.17.26.15.51.16.78.08z"/></symbol><symbol class="svg-sprite" id="youtube" viewBox="0 0 504 504"><g id="Artboard" stroke="none" stroke-width="1" fill-rule="evenodd"><g id="youtube" transform="translate(0 76)" fill-rule="nonzero"><path d="M253.146.001c14.332.026 158.582.539 196.05 10.797 21.588 5.814 38.609 22.84 44.421 44.436 10.578 38.664 10.393 118.41 10.381 121.584v.315c-.01 4.653-.312 82.78-10.381 121.049-5.812 21.595-22.833 38.622-44.421 44.436-39.44 10.383-197.198 10.383-197.198 10.383S94.655 353 54.8 342.203c-21.588-5.814-38.61-22.841-44.421-44.437C.519 260.681.026 184.616 0 177.101v-1.199c.025-7.477.518-83.187 10.378-120.668C16.19 33.64 33.627 16.197 54.8 10.382 92.268.52 236.518.026 250.85.002zm-51.382 100.916v151.167L332.953 176.5l-131.189-75.583z" id="Combined-Shape"/></g></g></symbol></svg>