<svg id="demo" xmlns="http://www.w3.org/2000/svg"  >

<path fill="#000" d="M103.8 63.6c-.5 1-1.5 2.5-2.3 3.4H31.9c-.5-.7-1.7-2.2-2.3-3.4h74.2zm-5.2 6.9H34.8c1 1.2 2.2 2.3 3.3 3.1h57c1.3-.7 2.6-1.9 3.5-3.1zm-7.9 6.4H73.2c-.5 2.8-.5 5.4-.5 7.3 5.1-.4 11.8-2.7 18-7.3zm19.5-36c-8 .5-19.4 5.9-26.8 14.6-1.4 1.6-2.6 3.1-3.6 4.8h25.6c3.5-6.9 5.4-13.8 4.8-19.4zM60.6 84.2c.1-1.9.1-4.5-.3-7.3H42.7c6.2 4.6 12.9 6.9 17.9 7.3zm6.1.5c1.8-1.9 3.7-4.5 5.5-7.8h-11c1.8 3.3 3.5 5.9 5.5 7.8zM53.6 60.3c-1-1.6-2.3-3.2-3.5-4.8-7.4-8.7-19-14.1-26.8-14.6-.5 5.6 1.2 12.5 4.7 19.4h25.6zm24.2 0c.2-2 .3-3.9.3-6.1 0-12.1-5.5-24.7-11.4-30.3-6.1 5.6-11.4 18.2-11.4 30.3 0 2.2 0 4.2.3 6.1h22.2zm25.8 48.8c3.6 0 6.7-1.5 6.7-5.1 0-2.1-1.5-3.5-3.8-4.1-2.4-.6-5.5-.5-5.5-2.1.2-1 1.1-1.3 2.6-1.3 2.3 0 2.3 1.2 2.4 2h3.7c-.3-2.9-2.6-4.8-6.3-4.8-3.9 0-6.1 2.1-6.1 4.8 0 1.6.8 2.9 2.1 3.6 1 .4 2.2.8 3.8 1 1.6.2 3.1.3 3.2 1.5 0 .8-.8 1.7-2.5 1.7-2.5 0-3-1.4-3-2.3H97c-.1 3 2.4 5.1 6.6 5.1zm-20.4-7.7c0 2.3 2 4.2 4.3 4.2 2.2 0 4.2-2 4.2-4.2 0-2.3-1.9-4.3-4.2-4.3-2.3 0-4.3 2-4.3 4.3zm4.2 7.7c-4.2 0-7.8-3.5-7.8-7.7 0-4.3 3.5-7.7 7.8-7.7 1.6 0 3.1.4 4.3 1.3v-1.1h3.7v14.9h-3.7v-1c-1.2.8-2.7 1.3-4.3 1.3zm-21.2-7.7c0 2.3 2 4.2 4.2 4.2 2.3 0 4.3-2 4.3-4.2 0-2.3-2-4.3-4.3-4.3-2.2 0-4.2 2-4.2 4.3zm8.6-12.6h3.6v20h-3.6v-1c-1.2.8-2.8 1.3-4.4 1.3-4.2 0-7.7-3.5-7.7-7.7 0-4.3 3.5-7.7 7.7-7.7 1.6 0 3.1.4 4.4 1.3v-6.2zm-17.3 3.7v-3.7h3.6v3.7h-3.6zm3.6 16.3h-3.6V93.9h3.6v14.9zm-17.8-7.4c0 2.3 2 4.2 4.4 4.2 2.2 0 4.2-2 4.2-4.2 0-2.3-2-4.3-4.2-4.3-2.4 0-4.4 2-4.4 4.3zm4.2 7.7c-4.2 0-7.8-3.5-7.8-7.7 0-4.3 3.5-7.7 7.8-7.7 1.6 0 3.1.4 4.4 1.3v-6.2h3.7v20h-3.7v-1c-1.3.8-2.8 1.3-4.4 1.3zm-21.3-7.7c0 2.3 2 4.2 4.2 4.2 2.4 0 4.4-2 4.4-4.2 0-2.3-2-4.3-4.4-4.3-2.2 0-4.2 2-4.2 4.3zm4.2 7.7c-4.2 0-7.7-3.5-7.7-7.7 0-4.3 3.5-7.7 7.7-7.7 1.6 0 3.2.4 4.5 1.3v-1.1h3.6v14.9h-3.6v-1c-1.3.8-2.8 1.3-4.5 1.3z"/>

</svg>