<svg id="svg" version="1.1" xmlns="http://www.w3.org/2000/svg" xmlns:xlink="http://www.w3.org/1999/xlink"><g id="svgg"><path id="path0" d="M56.986 1.059 C 11.978 9.073,-12.562 60.663,8.171 103.684 C 33.105 155.422,108.441 156.649,135.070 105.750 C 163.327 51.741,117.492 -9.713,56.986 1.059 M90.215 15.420 C 105.486 20.567,124.688 37.182,124.688 45.247 C 124.688 46.234,91.565 63.831,90.706 63.300 C 90.194 62.984,89.776 62.308,89.776 61.798 C 89.776 59.130,79.180 34.202,77.208 32.229 C 71.416 26.438,66.534 31.550,54.000 56.532 C 27.698 108.952,29.374 114.460,65.337 93.796 L 84.289 82.905 86.884 90.592 C 91.330 103.762,92.813 105.736,98.265 105.736 C 104.666 105.736,104.755 102.485,98.784 86.739 L 94.981 76.711 97.117 75.375 C 100.296 73.386,128.624 57.855,129.073 57.855 C 130.025 57.855,130.729 63.602,130.767 71.693 C 131.015 124.004,68.070 150.470,30.822 113.716 C -4.485 78.876,14.880 20.468,64.339 12.622 C 70.323 11.673,83.244 13.070,90.215 15.420 M206.394 38.839 C 202.686 42.547,171.571 105.405,171.571 109.188 C 171.571 112.512,175.441 114.483,179.342 113.146 C 181.418 112.434,183.087 110.136,186.534 103.242 L 191.022 94.264 201.123 93.981 L 211.224 93.699 211.661 102.837 C 212.130 112.642,213.248 114.713,218.075 114.713 C 222.724 114.713,223.637 112.319,222.979 101.854 C 222.647 96.582,221.709 81.288,220.894 67.866 C 219.198 39.944,218.346 36.639,212.706 36.095 C 210.163 35.851,208.782 36.451,206.394 38.839 M263.583 39.396 C 255.457 42.927,248.390 51.306,244.760 61.713 C 243.733 64.658,242.444 67.202,241.895 67.366 C 241.347 67.530,239.647 67.938,238.119 68.274 C 232.669 69.470,232.325 77.990,237.672 79.332 L 240.000 79.917 237.669 92.577 C 234.733 108.520,234.915 112.832,238.576 114.112 C 244.233 116.090,245.829 113.508,248.808 97.562 C 252.372 78.479,251.801 79.800,256.492 79.800 C 263.045 79.800,266.292 77.423,266.319 72.604 C 266.337 69.375,263.943 67.830,258.918 67.830 C 252.210 67.830,258.171 56.346,267.332 51.621 C 280.315 44.924,276.852 33.629,263.583 39.396 M300.580 39.837 C 293.002 43.278,283.669 55.660,281.020 65.788 C 280.690 67.051,279.664 67.830,278.332 67.830 C 271.877 67.830,269.289 76.835,275.112 79.033 L 277.905 80.087 275.640 93.161 C 272.753 109.824,272.725 112.331,275.405 113.765 C 281.282 116.911,284.486 112.812,286.745 99.253 C 287.659 93.768,288.864 87.147,289.423 84.540 L 290.440 79.800 295.171 79.800 C 300.591 79.800,304.239 76.945,304.239 72.704 C 304.239 69.141,302.441 67.830,297.556 67.830 C 292.512 67.830,292.649 68.287,295.659 61.480 C 297.922 56.363,303.704 50.873,306.830 50.873 C 309.587 50.873,313.217 46.693,313.217 43.519 C 313.217 37.619,308.496 36.243,300.580 39.837 M75.834 59.352 C 77.623 64.289,79.273 68.831,79.500 69.445 C 79.850 70.390,73.676 74.498,56.103 85.011 L 52.854 86.955 57.204 77.642 C 65.520 59.838,71.260 48.916,71.919 49.643 C 72.283 50.045,74.045 54.414,75.834 59.352 M209.377 72.569 L 209.476 81.796 202.998 81.796 L 196.520 81.796 202.250 70.280 C 208.806 57.105,209.212 57.235,209.377 72.569 M332.168 60.735 C 304.441 66.415,295.054 110.093,320.698 114.104 C 329.978 115.555,341.147 110.766,341.147 105.336 C 341.147 99.876,339.267 99.124,330.682 101.148 C 322.771 103.012,320.227 102.532,318.227 98.796 C 315.989 94.614,316.782 94.039,325.436 93.568 C 341.857 92.674,351.184 85.511,351.276 73.725 C 351.351 64.045,343.168 58.482,332.168 60.735 M392.450 60.600 C 391.315 60.787,387.572 64.285,384.133 68.375 C 376.591 77.342,377.325 77.285,373.160 69.230 C 369.383 61.927,366.605 59.933,362.304 61.436 C 357.852 62.992,358.199 67.176,363.611 77.185 C 366.152 81.885,367.927 86.223,367.556 86.824 C 367.184 87.426,363.334 92.004,359.001 96.997 C 350.919 106.311,349.723 109.182,352.690 112.148 C 356.082 115.540,359.151 114.144,367.199 105.549 L 374.845 97.382 378.021 103.675 C 383.187 113.908,388.317 117.276,392.447 113.146 C 395.019 110.575,394.300 107.724,388.470 97.377 C 382.984 87.638,382.946 87.512,384.802 85.413 C 395.864 72.906,400.000 67.466,400.000 65.427 C 400.000 62.003,396.709 59.899,392.450 60.600 M339.176 73.346 C 341.938 76.673,329.840 83.622,323.042 82.613 C 320.942 82.302,320.959 82.212,323.745 78.910 C 328.484 73.295,336.681 70.339,339.176 73.346 " stroke="none" fill="#000000" fill-rule="evenodd"></path></g></svg>