<svg id="svg" version="1.1" xmlns="http://www.w3.org/2000/svg" xmlns:xlink="http://www.w3.org/1999/xlink" viewBox="0, 0, 400,264.9006622516556"><g id="svgg">

<path id="path0" d="M184.768 41.798 C 171.522 42.968,155.123 47.306,142.765 52.910 C 140.457 53.956,138.216 54.594,137.785 54.327 C 136.334 53.430,133.616 54.473,132.546 56.338 C 131.689 57.832,131.149 58.117,129.719 57.831 C 127.596 57.407,125.174 59.487,125.150 61.755 C 125.139 62.782,123.696 64.437,120.511 67.080 C 102.320 82.168,82.907 121.318,90.066 128.477 C 94.077 132.487,97.097 129.957,100.671 119.590 C 107.969 98.427,117.835 87.808,130.238 87.766 C 145.060 87.717,147.945 96.929,139.772 118.212 C 133.312 135.034,133.315 137.830,139.796 142.277 C 142.884 144.396,148.798 144.091,151.378 141.680 C 153.710 139.502,154.222 138.420,159.211 125.109 C 163.616 113.359,165.048 111.074,167.590 111.739 C 171.089 112.654,171.137 114.427,167.901 123.125 C 162.893 136.584,165.255 143.698,174.734 143.706 C 181.633 143.712,182.857 142.144,189.136 125.255 C 194.127 111.827,195.278 110.182,198.294 112.158 C 200.976 113.915,200.854 115.193,197.028 125.387 C 192.687 136.952,192.562 138.390,195.629 141.457 C 197.448 143.275,198.396 143.709,200.559 143.709 C 205.313 143.709,206.326 142.208,212.252 126.392 L 217.550 112.252 219.745 112.041 C 224.794 111.556,224.923 113.768,220.530 125.561 C 215.589 138.826,216.545 143.709,224.084 143.709 C 229.004 143.709,229.844 142.503,235.778 126.918 C 241.889 110.867,243.235 108.210,246.290 106.151 C 250.579 103.263,255.241 104.660,259.719 110.176 C 268.226 120.654,280.936 131.792,287.050 134.127 C 302.514 140.033,317.493 122.561,309.522 107.916 C 307.665 104.504,306.533 103.365,299.706 98.037 C 297.623 96.410,293.335 92.095,290.178 88.447 C 267.547 62.297,247.470 49.683,219.449 44.009 C 212.946 42.693,194.599 40.808,191.722 41.160 C 191.358 41.205,188.228 41.492,184.768 41.798 M127.127 74.124 C 128.451 76.599,126.268 78.782,123.793 77.458 C 122.353 76.687,122.119 74.834,123.311 73.642 C 124.503 72.450,126.356 72.684,127.127 74.124 M90.237 159.037 C 83.798 160.171,78.146 166.857,78.146 173.339 C 78.146 181.373,87.778 181.679,89.988 173.715 C 90.893 170.452,92.646 169.567,95.066 171.152 C 98.613 173.477,97.141 176.733,90.129 182.072 C 81.441 188.685,78.140 193.703,78.149 200.284 C 78.174 218.052,102.565 221.859,107.672 204.891 C 108.821 201.074,108.987 175.999,107.897 170.918 C 106.136 162.704,98.517 157.578,90.237 159.037 M124.978 159.061 C 114.098 161.364,112.591 165.348,112.586 191.837 L 112.583 211.819 114.297 213.856 C 116.479 216.450,119.610 216.621,122.314 214.297 L 124.172 212.699 124.365 192.520 C 124.582 169.758,124.840 168.564,129.019 170.908 L 130.795 171.904 131.126 192.301 L 131.457 212.699 133.315 214.297 C 135.899 216.518,138.683 216.385,141.145 213.924 L 143.115 211.953 142.915 190.910 C 142.697 167.913,142.689 167.863,138.501 163.351 C 135.220 159.818,129.691 158.063,124.978 159.061 M184.984 159.030 C 179.958 159.914,176.368 162.637,173.751 167.550 C 171.734 171.337,171.889 203.800,173.942 207.616 C 181.395 221.463,202.617 216.510,202.645 200.917 C 202.658 194.000,193.226 192.780,191.317 199.452 C 189.074 207.288,184.106 205.642,184.106 197.063 L 184.106 192.715 187.583 192.624 C 189.495 192.573,192.699 192.484,194.702 192.426 C 201.801 192.219,202.649 190.893,202.649 180.006 C 202.649 164.373,196.452 157.015,184.984 159.030 M219.327 159.047 C 207.389 161.143,201.694 179.470,212.981 179.470 C 215.780 179.470,218.543 177.018,218.543 174.533 C 218.543 171.301,221.746 169.336,224.149 171.093 C 227.431 173.493,225.131 177.558,217.124 183.507 C 201.275 195.282,204.770 215.969,222.593 215.879 C 234.248 215.821,237.267 209.566,236.969 186.093 L 236.755 169.205 234.998 166.225 C 231.683 160.599,225.808 157.908,219.327 159.047 M149.023 160.248 C 147.009 162.263,146.933 163.256,147.149 184.793 C 147.343 204.167,147.409 205.076,148.822 207.717 C 152.736 215.038,162.653 218.425,166.563 213.778 C 169.525 210.258,167.530 204.636,163.319 204.636 C 159.230 204.636,158.940 203.692,158.940 190.360 L 158.940 178.146 162.204 178.146 C 164.940 178.146,165.688 177.864,166.839 176.401 C 169.984 172.404,166.969 166.887,161.640 166.887 C 159.188 166.887,158.940 166.733,158.940 165.199 C 158.940 163.039,157.316 159.883,155.931 159.352 C 153.728 158.506,150.323 158.948,149.023 160.248 M243.069 160.717 C 241.702 162.455,241.676 162.968,241.862 184.442 L 242.053 206.391 243.859 209.119 C 247.709 214.933,257.039 217.856,260.548 214.347 C 263.997 210.898,261.920 205.089,256.954 204.294 C 253.116 203.680,252.930 202.995,253.131 190.178 L 253.311 178.662 256.118 178.526 C 264.383 178.127,264.649 167.840,256.415 167.049 C 253.011 166.722,252.980 166.699,252.980 164.455 C 252.980 159.383,246.146 156.806,243.069 160.717 M275.828 159.860 C 267.823 163.357,266.887 166.259,266.887 187.605 L 266.887 205.025 269.040 208.610 C 275.072 218.655,290.025 218.165,295.225 207.753 C 297.297 203.604,297.342 199.125,295.333 196.987 C 292.146 193.594,285.430 195.727,285.430 200.133 C 285.430 202.429,284.152 203.974,282.261 203.963 C 278.953 203.945,278.477 203.145,278.477 197.608 L 278.477 192.517 285.948 192.414 C 296.401 192.270,296.966 191.709,297.154 181.277 C 297.470 163.846,288.144 154.480,275.828 159.860 M309.406 160.350 C 302.001 164.015,301.325 166.643,301.325 191.732 L 301.325 212.646 303.077 214.270 C 304.953 216.009,307.790 216.379,310.033 215.178 C 312.788 213.704,313.103 211.305,313.199 191.060 C 313.298 170.235,313.304 170.199,316.977 170.199 C 321.438 170.199,323.697 163.968,320.478 160.541 C 318.486 158.421,313.478 158.334,309.406 160.350 M189.662 171.213 C 190.844 172.396,191.593 175.787,191.279 178.538 C 191.071 180.361,190.875 180.474,187.583 180.664 L 184.106 180.864 184.106 176.562 C 184.106 171.075,186.866 168.418,189.662 171.213 M284.106 171.523 C 285.136 172.553,285.430 173.731,285.430 176.821 L 285.430 180.795 281.788 180.795 L 278.146 180.795 278.146 176.821 C 278.146 172.693,279.518 170.199,281.788 170.199 C 282.334 170.199,283.377 170.795,284.106 171.523 M96.032 202.639 C 95.061 204.454,91.783 204.426,90.498 202.591 C 89.051 200.526,90.187 197.473,93.523 194.461 L 96.358 191.903 96.552 196.604 C 96.659 199.189,96.425 201.905,96.032 202.639 M225.712 196.469 C 225.861 201.861,224.767 203.974,221.825 203.974 C 217.485 203.974,217.592 198.637,222.014 194.554 C 225.546 191.294,225.570 191.306,225.712 196.469 " stroke="none" fill="#fff" fill-rule="evenodd"></path></g></svg>