<svg id="svg" version="1.1" xmlns="http://www.w3.org/2000/svg" xmlns:xlink="http://www.w3.org/1999/xlink" viewBox="0, 0, 400,76.56765676567656"><g id="svgg"><path id="path0" d="M63.245 28.444 C 52.426 33.887,37.476 34.012,13.587 28.859 C 8.505 27.763,8.428 27.854,13.036 29.507 C 36.814 38.037,51.934 48.287,60.167 61.455 L 61.551 63.669 73.426 63.683 L 85.300 63.696 82.172 60.533 C 76.640 54.940,68.830 49.029,61.551 44.928 C 59.917 44.007,58.372 43.131,58.117 42.981 C 57.822 42.806,58.898 42.494,61.088 42.119 C 69.089 40.750,80.647 37.867,84.218 36.351 L 85.587 35.769 80.005 33.350 C 76.935 32.019,72.480 30.083,70.106 29.047 L 65.790 27.163 63.245 28.444 M99.340 45.878 L 99.340 64.052 114.274 63.957 L 129.208 63.861 131.102 62.931 C 133.515 61.746,135.674 59.588,136.859 57.175 L 137.789 55.281 137.789 45.875 L 137.789 36.469 136.859 34.575 C 136.348 33.533,135.269 32.021,134.463 31.215 C 133.656 30.408,132.144 29.330,131.102 28.818 L 129.208 27.888 114.274 27.796 L 99.340 27.703 99.340 45.878 M143.564 45.875 L 143.564 64.026 148.515 64.026 L 153.465 64.026 153.465 45.875 L 153.465 27.723 148.515 27.723 L 143.564 27.723 143.564 45.875 M164.538 45.431 C 160.412 55.170,156.959 63.339,156.865 63.583 C 156.727 63.942,157.656 64.026,161.775 64.026 L 166.855 64.026 168.030 61.304 L 169.205 58.581 179.211 58.581 L 189.218 58.581 190.366 61.304 L 191.514 64.026 196.618 64.026 C 201.336 64.026,201.705 63.983,201.514 63.449 C 201.401 63.131,198.006 54.964,193.971 45.300 L 186.634 27.729 179.337 27.726 L 172.041 27.723 164.538 45.431 M204.950 45.875 L 204.950 64.052 220.050 63.956 L 235.149 63.861 237.232 62.732 C 242.816 59.704,243.729 57.334,243.729 45.875 C 243.729 34.458,242.643 31.682,237.075 28.863 L 235.149 27.888 220.050 27.793 L 204.950 27.698 204.950 45.875 M256.875 28.325 C 253.820 29.396,251.591 31.462,250.047 34.653 L 249.010 36.799 249.010 45.875 L 249.010 54.950 249.894 56.838 C 251.065 59.335,253.443 61.824,255.734 62.949 L 257.591 63.861 269.142 63.861 L 280.693 63.861 282.521 62.963 C 284.854 61.816,287.232 59.438,288.377 57.107 L 289.274 55.281 289.274 45.875 L 289.274 36.469 288.404 34.614 C 287.227 32.103,285.567 30.352,283.092 29.010 L 281.023 27.888 269.802 27.808 C 259.691 27.736,258.412 27.787,256.875 28.325 M294.059 45.861 L 294.059 64.026 298.671 64.026 L 303.282 64.026 303.374 59.323 L 303.465 54.620 310.889 54.531 C 320.968 54.411,320.855 54.347,321.064 60.314 L 321.193 64.026 325.943 64.026 L 330.693 64.026 330.693 59.282 C 330.693 53.456,330.555 52.726,329.175 51.262 L 328.079 50.100 329.050 49.284 C 330.461 48.096,330.795 46.415,330.610 41.419 C 330.361 34.688,328.344 31.030,323.597 28.698 L 321.947 27.888 308.003 27.792 L 294.059 27.696 294.059 45.861 M342.757 43.313 C 339.137 51.892,335.689 60.062,335.095 61.469 L 334.015 64.026 339.068 64.026 L 344.120 64.026 345.476 61.051 L 346.831 58.076 356.649 58.163 L 366.467 58.251 367.675 61.056 L 368.884 63.861 374.046 63.952 C 376.885 64.002,379.208 64.002,379.208 63.951 C 379.208 63.901,375.814 55.766,371.665 45.874 L 364.123 27.888 356.731 27.802 L 349.340 27.716 342.757 43.313 M182.563 42.903 C 183.985 46.261,185.149 49.045,185.149 49.091 C 185.149 49.137,182.459 49.175,179.173 49.175 C 174.521 49.175,173.234 49.083,173.366 48.762 C 178.148 37.136,178.426 36.569,179.285 36.696 C 179.843 36.779,180.478 37.980,182.563 42.903 M359.863 42.657 C 361.252 45.969,362.386 48.791,362.383 48.927 C 362.372 49.339,350.825 49.229,350.825 48.818 C 350.825 48.518,351.828 46.045,355.334 37.706 C 356.369 35.242,357.079 36.018,359.863 42.657 M126.276 38.139 C 128.428 39.747,128.548 40.152,128.548 45.842 C 128.548 54.202,128.194 54.455,116.534 54.455 L 108.581 54.455 108.581 45.859 L 108.581 37.262 116.973 37.360 C 124.851 37.453,125.422 37.500,126.276 38.139 M231.859 38.108 C 235.197 40.064,235.903 49.880,232.909 52.712 C 231.091 54.432,230.951 54.455,222.299 54.455 L 214.191 54.455 214.191 45.875 L 214.191 37.294 222.331 37.294 C 230.387 37.294,230.484 37.302,231.859 38.108 M277.967 38.361 C 279.850 39.798,280.287 41.412,280.149 46.423 C 279.946 53.844,279.122 54.455,269.342 54.455 C 262.508 54.455,261.476 54.296,260.117 53.031 C 257.446 50.543,257.260 41.463,259.831 39.040 C 261.684 37.293,261.710 37.289,269.499 37.377 L 276.786 37.459 277.967 38.361 M320.124 37.945 C 320.998 38.820,321.228 39.896,321.054 42.305 C 320.817 45.585,320.937 45.545,311.350 45.545 L 303.300 45.545 303.300 41.419 L 303.300 37.294 311.386 37.294 C 318.997 37.294,319.510 37.332,320.124 37.945 " stroke="none" fill="#000000" fill-rule="evenodd"></path></g></svg>