<svg id="svg" version="1.1" xmlns="http://www.w3.org/2000/svg" xmlns:xlink="http://www.w3.org/1999/xlink">


<g id="svgg"><path id="path0" d="M140.178 5.020 C 136.454 6.483,133.328 9.461,131.393 13.389 L 129.750 16.726 129.619 37.988 C 129.546 49.682,129.661 73.088,129.873 90.000 L 130.259 120.750 131.558 123.500 C 137.272 135.588,155.890 136.961,163.252 125.837 C 166.684 120.653,166.580 122.757,166.143 66.918 L 165.750 16.750 164.415 13.902 C 160.496 5.542,149.297 1.438,140.178 5.020 M190.417 5.189 C 185.865 7.061,182.444 10.505,180.634 15.038 C 179.561 17.722,178.987 105.868,180.009 110.794 C 181.864 119.731,189.761 128.381,198.479 131.027 C 201.635 131.985,203.062 132.015,239.000 131.885 L 276.250 131.750 279.126 130.402 C 285.988 127.187,286.405 126.589,309.750 86.591 C 319.650 69.628,328.057 55.750,328.432 55.750 C 329.243 55.750,353.000 93.739,353.000 95.035 C 353.000 97.451,352.621 97.500,333.819 97.500 C 319.628 97.500,315.632 97.649,313.230 98.266 C 298.113 102.154,295.558 123.553,309.399 130.350 L 312.250 131.750 342.445 131.890 C 369.059 132.014,372.973 131.934,375.445 131.221 C 393.313 126.064,401.326 105.945,392.492 88.424 C 388.667 80.839,346.877 13.356,344.309 10.617 C 335.718 1.456,319.145 2.410,311.761 12.490 C 310.850 13.733,299.934 31.625,287.503 52.250 C 264.517 90.386,263.273 92.264,259.750 94.169 C 257.392 95.444,221.812 96.165,218.989 94.995 C 216.468 93.951,216.513 94.643,216.378 54.750 L 216.250 17.250 214.797 14.104 C 210.813 5.475,199.648 1.392,190.417 5.189 M18.153 6.504 C 2.583 8.780,-1.473 30.401,12.000 39.300 C 16.074 41.991,16.244 42.000,61.811 42.000 C 101.354 42.000,104.091 41.944,106.880 41.076 C 124.665 35.541,123.010 9.487,104.682 6.486 C 101.221 5.919,22.042 5.936,18.153 6.504 M17.627 53.224 C 12.654 54.792,8.143 58.830,5.611 63.981 L 4.250 66.750 4.106 93.250 C 3.977 117.140,4.046 119.972,4.809 122.000 C 10.280 136.556,31.734 137.561,38.620 123.584 L 40.250 120.276 40.500 105.427 C 40.749 90.623,40.754 90.574,41.943 89.309 L 43.137 88.040 70.193 87.895 C 97.194 87.750,97.256 87.748,100.131 86.587 C 113.703 81.107,114.393 61.042,101.250 54.075 L 98.750 52.750 59.250 52.652 C 27.435 52.574,19.337 52.685,17.627 53.224 " stroke="none" fill="#fff" fill-rule="evenodd"></path></g></svg>