<svg xmlns="http://www.w3.org/2000/svg" xmlns:xlink="http://www.w3.org/1999/xlink" ><style>.st0{display:none}.st1{display:inline}.st2{fill-rule:evenodd;clip-rule:evenodd}</style><path d="M48.2 78.8c-7.1 3-18.1 6.4-22.8-1-2.6-4.1-.9-10.5 2.9-16.4 2.4-3.7 5.5-7.1 8.6-10.6-1.7 2.8-6.6 12.2-.2 16.8 2.5 1.8 6.8 2 12.3.6l64.9-17.1-65.7 27.7z" id="Layer_2"/><g id="Layer_3" class="st0"><path class="st1" d="M112.3 99.4c-.1-.2-1.1-.7-1.5-.7-.4 0-1.6.8-1.9 1-.2.2-.8.4-1 .5-.2 0-1.9.1-2.3.1-.4 0-1-.1-1.2-.1h-.9c-.1 0-.2-.2 0-.3.1-.2.4-.6.7-1 .3-.3.7-.6.9-.7.3-.1.7-.3.7-.5s-.6-.2-1.1 0c-.4.1-1 .7-1.1.9-.2.2-.3.2-.4.2-.1 0-.4.2-.5.3-.1.1-.4.3-.6.3-.3 0-.6-.3-.7-.4-.1-.1-.4-.2-.6-.2-.2 0-.5-.1-.7-.3-.2-.2-.3-.4-.2-.5.1-.1.2-.4.2-.5 0-.1-.1-.2-.3-.3-.2-.1-1.5-.9-2.5-1.9-.9-.8-2.5-1.9-3.2-2.5-.6-.5-3.6-2.8-5.5-4-1.9-1.2-3.6-2.4-4.3-2.5-.7-.1-.9-.2-1-.4-.2-.2-2.8-2.7-4.4-3.5-1.5-.8-4.6-2.3-4.7-2.4.3-.5.3-1 .2-1.5-.1-.5-1.2-1.2-1.6-1.5-.4-.3-.7-.4-.7-.4s-.7-1.5-.7-1.7c.2-.8.7-3.3.6-6.7-.1-3.4-.4-3.9-.7-4.6-.4-.7-.9-1.4-1.3-3s-.5-3-.3-3.6c.2-.6.7-1.7 1.1-3 .3-1.3.1-2.2.2-2.6 0-.4.4-.9.4-2 .1-1.1.5-1.2.8-2.8.3-1.6.5-2.6.5-2.6s.5-.1.6-.6c.1-.5.1-.9.3-1.6.1-.7.2-1.6.2-1.8 0-.2-.1-.4-.1-.4s.2-3.1.3-3.8c.1-.7.3-1.3.3-1.6 0-.3 0-.5-.3-1.1.1-.2.1-.3.2-.4h.2c2.7 0 4.9-2.2 4.9-4.9s-2.2-4.9-4.9-4.9-4.9 2.2-4.9 4.9c0 .8.2 1.6.6 2.3.1.3.2.6.2.7.1.2.3.4.4.6l.5 1c.1.2.3.6.3.8 0 .2.1.5.2.7.1.2.1.7 0 1.2s-.6 3.1-.8 3.6c-.3.2-.4.5-.5.7 0 .2-.3 1.3-.5 1.7-.2.4-.2 1.1-.3 1.3 0 .2 0 .7-.2.8-.2.3-.3.7-.5.9-.1.2-.3 1-.2 1.4 0 .3 0 1.1-.2 1.3-.2.5-.3 1.1-.4 1.4-.1.3-.6 1.9-.6 2.2-.1.3-.7.8-1 1.1-.3.3-.8 1-.9 1.3 0-.4-.1-.4-.2-.6-.1-.1-.4-.2-.4-.3-.1-.1.1-.3.1-.5s0-.4-.5-.6c-.5-.1-.6-.2-.8-.3-.2-.2-.7-.3-.8-.5-.4-.5-1.2-1.2-2.6-1.2 0 0-1 0-1.8.5s-2.1 1.5-2.4 3.5c-.3 2 1.5 3.3 1.7 3.4.2.1.6.4.3.8-.1.1-.2.4-.2.5 0 .1-.3.5-.5.7l-.7.7s-1.2.1-2 1.1c-.3.4-.5.9-.7 1.2-.2.3-1 1.7-1.2 2.1-.2.4-.4 1-1 1.5-.2.4-.7.7-1.1 2.4 0 0-1.7 2.1-2.3 3.1-.6 1-1.5 2.7-1.6 2.9-.1.2-.5 1.1-.7 1.4-.1.3-.2.6-.3.8-.1.2-.7.9-1.2 1.3s-.6.6-.7.8c-.1.2-.3.5-1.1.9s-1.2.8-2.4.9c-1.2.1-1.8 0-1.9.4-.1.4 2 .5 2.7.4.9-.1 1.4-.6 1.5-.5.1.1-.3.7-1 .9-.8.2-.6.5-.6.6 0 .1.4.3 1.2.1.7-.2 2-.8 2.1-.7.1.1-.3.6-.4.9-.1.2.1.4.3.5.2 0 .7 0 1.1-.8.4-.7.9-1.1 1.1-1.1.1 0 .8.7 1.3.9.5.2 1.4.2 1.5-.3.1-.5-.6-.5-.8-.5-.2 0-.6-.4-.6-.6 0-.2.1-.9 0-1.2-.1-.3.2-1.4.4-2.1.3-.7 1.2-2.3 1.9-2.7.7-.4 2.9-2.1 3.6-3.5.7-1.5 1-2.2 1.2-2.3.2-.1.6-.1.9-.6.3-.4.4-.8.7-.8.3 0 .2-.1 1 1 .7 1.1 1 1.3 1.1 1.4.1.1-.1.4.1.9.3.6.7.7.7 1s.1.9.2 1.2c.1.4.4 1 .3 1.3-.2.3-.7 1-.8 1.2-.6.1-1.6.4-1.7 1.7-.1 1.3 0 2.5 0 2.8-.1.3-.9 1.1-1.2 1.2-.3.1-1.1.2-1.3.6-.3.4-.3.7-.8 1-.5.3-3.6 2.9-5.7 6.1-.1.1-.3.2-.5.3-.9.2-1.3.4-1.4.5l-.9.9c-.1.2-.4.3-.4.4-.8.3-3.8 1.8-5.5 3-1.8 1.2-5 4-6.2 5.5-.7.9-.8.9-1 1-.2.1-.1.5 0 .7 0 0-.3.5-.6.5-.2 0-.4-.4-.7-.4-.3 0-.6.6-.7.7-.1.2-.2.4-.4.5-.2 0-.5-.2-.6-.7 0-.5-.4-1-.5-1.1-.3 0-.4.4-.4.6 0 .1.1.6.3.7.1.2 0 .4 0 .6s.2.3.2.4c0 .1.1.5-.1.5s-.5 0-.8.2c-.3.2-.4.4-.4.5 0 .2.1.5-.4.6-.6.2-1.1.3-1.4.4-.3.1-1.1.5-1.4.6h-.7c-.3 0-.5.2-.7.2-.3 0-1 .4-1.4.6-.4.2-.9.9-.6 1.6.3.6 1.2 1.5 1.4 1.8.3.3.7.6 1.6.7.9.1 1.4-.2 1.9-.5.4-.3 1.4-.4 1.8-.3.4.1 1.2.4 1.8-.1.8-.6.6-.9.8-1.1.2 0 .3-.1.5-.4.2-.3.4-.6.8-.7.3-.1.7-.5.9-.9.2-.4.6-.9.9-1 .2-.1.3-.3.4-.4.1-.2.5-.3.7-.5.2-.2.4-.3.5-.2.1.1.3-.1.5-.3.5-.3.8-.7 1-.6.2.1.8.3 1 0 .2-.2 3.4-2.7 4.5-3.6.7-.5 1.3-.7 2.8-1.6 1.2-.7 3-1.9 3.4-2.2.4-.3 2.3-1.7 2.5-1.9.5-.4 1-.4 2.9-1.4 1.4-.7 4.3-2.2 6.8-3.8 1.3-.8 3.5-1.9 3.7-1.9.3 0 1.1.6 1.9.9 1 .4 1.6.5 3.1.9 1.4.5 5.2 2.1 6.1 2.4.9.4 2.2.8 3.8.9.9.2 1.3.3 1.6.4.3.1.5 0 .8.2.3.1 1.2.7 1.7 1 .5.3 2.4 1.5 2.9 1.9.5.4 2.8 2.1 3.3 2.5.5.3 1 .7 1.4.8.4 0 .9.3 1.4.7.5.4 1.7 1.2 2.1 1.5.3.3.8.7 1.5.7s1 .2 1.4.6c.4.4 1.1 1.2 1.4 1.4.3.2.6.4.8.7.1.3.9 1.2 1.2 1.5.3.2.4.4.5.7.1.3.6 1.2.8 1.6.2.4.3.7 1 .3.9-.6 1.6-1.4 2.7-2.1 1.1-.7 1.8-1.1 2.6-1.7.9-.6 2.9-2.6 3.5-3.3.1-.7.4-1 .3-1.2z"/></g><g id="Layer_1" class="st0"><g id="X57OQc.tif" class="st1"><image width="1316" height="1279" id="Layer_1_2_" xlink:href="283134AFB21C0A3B.png" transform="matrix(.06814 0 0 .06814 21.661 22.922)" overflow="visible"/></g></g><g id="Layer_4" class="st0"><g class="st1"><path d="M24.5 77.9h-1.4l-.3-3.1h1.4l.3 3.1zm87 0h1.4l.3-3.1h-1.4l-.3 3.1zM22 74.8h-1.4l.3 3.1h1.4l-.3-3.1zm91.8 3.1h1.4l.3-3.1h-1.4l-.3 3.1zm-82 .8c0 1.1-.8 2-2 2s-2-.9-2-2 .8-2 1.9-2c1.3-.1 2.1.8 2.1 2m-6.1 0c0 2.2 1.8 3.9 4.1 3.9 2.4 0 4.1-1.8 4.1-3.9 0-2.2-1.8-3.9-4.1-3.9-2.3-.1-4.1 1.7-4.1 3.9m9.6 3.7h2.1v-2.7H41V78h-3.6v-1.3h4v-1.8h-6.1v7.5zm7.4 0h2.1v-2.7h3.6V78h-3.6v-1.3h4v-1.8h-6.1v7.5zm12.1 0h2.1v-5.7h2.3v-1.8h-6.7v1.8h2.3v5.7zm5.8 0h2.1v-2.9h2.7v2.9h2.1v-7.5h-2.1v2.8h-2.7v-2.8h-2.1v7.5zm8.5 0h6.2v-1.8h-4.1v-1.2h3.7v-1.7h-3.7v-1.1h4.1v-1.8h-6.2v7.6zm12.1.1H83l1.5-4.3 1.5 4.3h2l2.6-7.6h-2.2L87 79.2l-1.5-4.4h-1.8l-1.5 4.4-1.3-4.4h-2.2l2.5 7.7zM93 79.4l.9-2.1.9 2.1H93zm-3.4 3h2.2l.5-1.3h3l.6 1.3h2.3l-3.3-7.6h-2.1l-3.2 7.6zm9.6 0h5.8v-1.8h-3.7v-5.7h-2.1v7.5zm7 0h5.8v-1.8h-3.7v-5.7h-2.1v7.5zM102.9 55.9h-4.1c-.4-1-.8-1.8-3.2-1.8-1.6 0-2.3.7-2.3 1.3 0 .7.6 1.3 2.3 1.7l3.7 1c2.4.7 3.6 2.6 3.6 4.6 0 1.1-.2 2.5-1.3 3.6-.8.8-2 2-6.1 2-5.6 0-7.4-3.5-7.4-5.7h4.3c.4 1.6 1.5 2.2 3.6 2.2 1.5 0 2.7-.5 2.7-1.6s-.9-1.5-2.1-1.8l-3-.8c-1.4-.4-2.6-.8-3.5-1.5-2.2-1.9-2-5.2.4-7 1.3-1 2.7-1.5 4.8-1.5 2.5 0 4 .7 5.1 1.5 1.3.8 2.5 2.4 2.5 3.8m-69.7-12c0 .1 8.6 24.2 8.6 24.2h5.1l7.9-20H104l.4-4.2H51.1l-6.6 16.6-5.9-16.6h-5.4m42.4 15.6l6.4 8.7h4V51h-4.6v9.3L75.6 51h-4.4v17.1h4.5v-8.6zm28.9 7.8c0-.5-.4-.9-.9-.9s-.9.4-.9.9.4.9.9.9.9-.4.9-.9zm-.1 0c0 .4-.3.8-.8.8s-.8-.4-.8-.8.3-.8.8-.8.8.3.8.8zm-.4-.2c0-.2-.1-.3-.4-.3h-.4v1h.2v-.3h.2l.2.3h.2l-.2-.3c.2-.2.2-.3.2-.4zm-.2 0c0 .1-.1.1-.2.1h-.2v-.3h.2c.2 0 .2.1.2.2zm-52.6 1h4.9l.9-2.7h6.5l.9 2.7h4.9L63.1 51h-5.2l-6.7 17.1zm7.2-5.7l1.9-5.7 1.9 5.7h-3.8z"/></g></g><g id="Layer_5" class="st0"><path d="M26 92.2c0 1.4 1.2 2.7 2.7 2.7.8 0 1.6-.4 2.1-1l.2-.2 2.5 1.7-.2.3c-1.1 1.4-2.8 2.1-4.6 2.1-3.2 0-5.8-2.5-5.8-5.5 0-3.1 2.6-5.5 5.8-5.5 1.8 0 3.5.8 4.6 2.2l.2.3-2.5 1.5-.2-.2c-.5-.7-1.3-1-2.1-1-1.5-.1-2.7 1.1-2.7 2.6zm29.4-5.3h2.8v10.4H55l-4.2-5.8v5.8H48V86.9h2.9l4.5 5.9v-5.9zm13.1 0h3.2l-3.4 10.4h-4.5l-3.4-10.4h3.2l2.3 7.4c0 .1.1.1.2.1 0 0 .2 0 .2-.1l2.2-7.4zm25.7 10.4h-3.1l-1.8-3.6c-.1-.1-.2-.1-.3-.1h-1.3v3.8h-2.8V86.9h5.3c1.8 0 3.3 1.3 3.4 3.1.1 1.3-.5 2.4-1.7 3.1l2.3 4.2zm-3.4-7c0-.3-.3-.6-.6-.6h-2.5v1.1h2.5c.3 0 .6-.2.6-.5zm16.7-3.4h8.3v2.8h-5.6v1.1h5v2.5h-5v1.3h5.6v2.8h-8.3V86.9zm-2.4 7.3c0 2.2-1.8 3.5-4.4 3.5-1.9 0-3.8-.6-5.1-1.8l1.7-2c1.1.8 2.3 1.3 3.5 1.3.8 0 1.3-.3 1.3-.7 0-.4-.4-.7-1.9-1-2.3-.5-4.1-1.2-4.1-3.4 0-2 1.6-3.4 4.1-3.4 1.8 0 3.2.5 4.4 1.4l-1.7 2c-1.1-.6-1.8-.9-2.8-.9-.7 0-1 .3-1 .7 0 .5.4.7 1.9 1 2.5.5 4.1 1.3 4.1 3.3zm-59.2-2c0 3-2.5 5.5-5.6 5.5-3.1 0-5.6-2.5-5.6-5.5s2.5-5.5 5.6-5.5c3.1-.1 5.6 2.4 5.6 5.5zm-3 0c0-1.5-1.2-2.6-2.6-2.6-1.5 0-2.6 1.2-2.6 2.6s1.2 2.6 2.6 2.6c1.4 0 2.6-1.2 2.6-2.6zm30.9-5.3h8.3v2.8h-5.6v1.1h5v2.5h-5v1.3h5.6v2.8h-8.3V86.9zm-16-32.2l9.4 3-9.4 3v9.8l-5.8-8-9.4 3 5.8-8-5.8-8 9.4 3 5.8-8v10.2zm20.6 3L57.8 80.1h17.6L96 57.7 75.4 35.3H57.8l20.6 22.4z"/></g><g id="Layer_6" class="st0"><g class="st1"><path class="st2" d="M73 44c-.3 0-.6 1.1-1.2 1.7-.4.4-1 .4-1.3.9-.1.2-.1.5-.2.8-.2.6-1.1.7-1.1 1.4s.7.9 1.3 1.4c.5.4.5.7 1.1.9.5.2 1.2-.4 1.9-.2.5.2 1.1.3 1.2.8.1.5 0 1.3-.7 1.2-.2 0-1.2-.3-2.4-.2-1.4.2-3.1.6-3.2 2.2-.1.9 1 1.9 2.1 1.7.7-.1.4-1 .8-1.4.5-.5 3.5 1.8 6.3 1.8 1.2 0 2-.3 2.9-1.2.1-.1.2-.2.3-.2.1 0 .3.1.4.2 2.2 1.7 3.9 5.3 12.1 5.3 1.2 0 2.5.5 3.5 1.5 1 .9 1.5 2.2 2.1 3.6.8 2 2.3 4 4.5 6.2.1.1 2 1.5 2.1 1.6 0 0 .2.3.1.5-.1 1.3-.3 5.2 2.7 5.4.7 0 .5-.5.5-.8 0-.7-.1-1.3.2-2 .5-.9-1.1-1.4-1-3.4 0-1.5-1.3-1.3-1.9-2.4-.4-.7-.7-1-.7-1.9.1-4.6-1-7.7-1.6-8.4-.5-.6-.8-.8-.4-1 2.5-1.6 3-3.1 3-3.1 1.3-3 2.5-5.7 4.1-6.9.3-.2 1.2-.9 1.7-1.1 1.5-.7 2.3-1.1 2.7-1.5.7-.7 1.2-2 .6-2.9-.8-1-2.3-.2-2.9.2-4.5 2.6-5.2 7.2-6.7 9.9-1.2 2.1-3.3 3.7-5.1 3.8-1.4.1-2.8-.2-4.3-.8-3.6-1.5-5.5-3.5-6-3.8-1-.7-8.4-7.8-14.4-8.1 0 0-.7-1.5-.9-1.5-.4-.1-.9.9-1.2 1-.2-.1-.7-1.2-1-1.2zM46.6 86.4c-.6 0-1-.5-1-1V67.1h-6.2v20.2c0 1 .8 1.8 1.8 1.8H52c1 0 1.8-.8 1.8-1.8V67.1h-6.2v18.3c0 .5-.5 1-1 1zM67.2 67.1h-9.3c-1.1 0-2 .9-2 2v20H62V70.7c0-.6.5-1 1-1 .6 0 1 .4 1.1 1V89h6.1V70.7c0-.6.5-1 1-1 .6 0 1 .4 1 1V89h6.2V69c0-1.1-.9-2-2-2h-9.2v.1zM35.2 83.5H29V89h-6.2V67h12.4c1.1 0 2 .9 2 2v12.5c.1 1.1-.8 2-2 2zm-4.1-12.7c0-.6-.5-1-1-1h-1v11.1h1c.5 0 1-.4 1-1v-9.1zM102.5 86.4c0 1.5-1.2 2.7-2.7 2.7-1.5 0-2.8-1.2-2.8-2.7 0-1.5 1.2-2.7 2.7-2.7 1.6 0 2.8 1.2 2.8 2.7zm-2.8-2.3c-1.2 0-2.3 1-2.3 2.3 0 1.3 1 2.3 2.3 2.3 1.3 0 2.3-1 2.3-2.3 0-1.2-1-2.3-2.3-2.3z"/><path class="st2" d="M101 88h-.7l-.9-1.2V88h-.6v-3.1h.6c.9 0 1.3.3 1.3.9 0 .4-.3.8-.6.9l.9 1.3zm-1.5-1.7c.4 0 .7-.1.7-.4 0-.3-.2-.4-.6-.4h-.1v.8zM88.9 89v-5.5h-2.1V89h-6.2V69c0-1.1.9-2 2-2H93c1.1 0 2 .9 2 2v20h-6.1zm0-8.2V70.7c0-.6-.5-1-1.1-1-.6 0-1 .4-1 1v10.1h2.1z"/></g></g></svg>