<svg id="demo" xmlns="http://www.w3.org/2000/svg" >



      <path class="st2" d="M73 44c-.3 0-.6 1.1-1.2 1.7-.4.4-1 .4-1.3.9-.1.2-.1.5-.2.8-.2.6-1.1.7-1.1 1.4s.7.9 1.3 1.4c.5.4.5.7 1.1.9.5.2 1.2-.4 1.9-.2.5.2 1.1.3 1.2.8.1.5 0 1.3-.7 1.2-.2 0-1.2-.3-2.4-.2-1.4.2-3.1.6-3.2 2.2-.1.9 1 1.9 2.1 1.7.7-.1.4-1 .8-1.4.5-.5 3.5 1.8 6.3 1.8 1.2 0 2-.3 2.9-1.2.1-.1.2-.2.3-.2.1 0 .3.1.4.2 2.2 1.7 3.9 5.3 12.1 5.3 1.2 0 2.5.5 3.5 1.5 1 .9 1.5 2.2 2.1 3.6.8 2 2.3 4 4.5 6.2.1.1 2 1.5 2.1 1.6 0 0 .2.3.1.5-.1 1.3-.3 5.2 2.7 5.4.7 0 .5-.5.5-.8 0-.7-.1-1.3.2-2 .5-.9-1.1-1.4-1-3.4 0-1.5-1.3-1.3-1.9-2.4-.4-.7-.7-1-.7-1.9.1-4.6-1-7.7-1.6-8.4-.5-.6-.8-.8-.4-1 2.5-1.6 3-3.1 3-3.1 1.3-3 2.5-5.7 4.1-6.9.3-.2 1.2-.9 1.7-1.1 1.5-.7 2.3-1.1 2.7-1.5.7-.7 1.2-2 .6-2.9-.8-1-2.3-.2-2.9.2-4.5 2.6-5.2 7.2-6.7 9.9-1.2 2.1-3.3 3.7-5.1 3.8-1.4.1-2.8-.2-4.3-.8-3.6-1.5-5.5-3.5-6-3.8-1-.7-8.4-7.8-14.4-8.1 0 0-.7-1.5-.9-1.5-.4-.1-.9.9-1.2 1-.2-.1-.7-1.2-1-1.2zM46.6 86.4c-.6 0-1-.5-1-1V67.1h-6.2v20.2c0 1 .8 1.8 1.8 1.8H52c1 0 1.8-.8 1.8-1.8V67.1h-6.2v18.3c0 .5-.5 1-1 1zM67.2 67.1h-9.3c-1.1 0-2 .9-2 2v20H62V70.7c0-.6.5-1 1-1 .6 0 1 .4 1.1 1V89h6.1V70.7c0-.6.5-1 1-1 .6 0 1 .4 1 1V89h6.2V69c0-1.1-.9-2-2-2h-9.2v.1zM35.2 83.5H29V89h-6.2V67h12.4c1.1 0 2 .9 2 2v12.5c.1 1.1-.8 2-2 2zm-4.1-12.7c0-.6-.5-1-1-1h-1v11.1h1c.5 0 1-.4 1-1v-9.1zM102.5 86.4c0 1.5-1.2 2.7-2.7 2.7-1.5 0-2.8-1.2-2.8-2.7 0-1.5 1.2-2.7 2.7-2.7 1.6 0 2.8 1.2 2.8 2.7zm-2.8-2.3c-1.2 0-2.3 1-2.3 2.3 0 1.3 1 2.3 2.3 2.3 1.3 0 2.3-1 2.3-2.3 0-1.2-1-2.3-2.3-2.3z" fill="#000"/>
      <path class="st2" d="M101 88h-.7l-.9-1.2V88h-.6v-3.1h.6c.9 0 1.3.3 1.3.9 0 .4-.3.8-.6.9l.9 1.3zm-1.5-1.7c.4 0 .7-.1.7-.4 0-.3-.2-.4-.6-.4h-.1v.8zM88.9 89v-5.5h-2.1V89h-6.2V69c0-1.1.9-2 2-2H93c1.1 0 2 .9 2 2v20h-6.1zm0-8.2V70.7c0-.6-.5-1-1.1-1-.6 0-1 .4-1 1v10.1h2.1z" fill="#000"/>

</svg>