<?xml version="1.0" encoding="UTF-8"?>
<!DOCTYPE svg PUBLIC "-//W3C//DTD SVG 1.1//EN" "http://www.w3.org/Graphics/SVG/1.1/DTD/svg11.dtd">
<!-- Creator: CorelDRAW 2018 (64-Bit) -->
<svg xmlns="http://www.w3.org/2000/svg" xml:space="preserve"  version="1.1" style="shape-rendering:geometricPrecision; text-rendering:geometricPrecision; image-rendering:optimizeQuality; fill-rule:evenodd; clip-rule:evenodd"
 xmlns:xlink="http://www.w3.org/1999/xlink">
 <defs>
  <style type="text/css">
   <![CDATA[
    .fil0 {fill:white}
   ]]>
  </style>
 </defs>
 <g id="Слой_x0020_1">
  <metadata id="CorelCorpID_0Corel-Layer"/>
  <g id="_1936161585392">
   <g>
    <path class="fil0" d="M112.38 71.48l-0.03 0 0.03 0zm763.05 86.25c-4.66,0 -9.6,-1.4 -14.67,-4.19l-2.39 -1.31 -11.27 24.82 2.09 1.09c9.62,5.26 18.38,7.47 29.14,7.47 19.96,0 31.52,-9.74 41.19,-34.66l48.28 -124.78 -33.7 0c0,0 -24.9,71.41 -28.86,82.69 -4.28,-11.16 -31.62,-82.69 -31.62,-82.69l-34.43 0c0,0 49.32,118.33 50.19,120.42 -4.24,9.22 -8.37,11.14 -13.95,11.14l0 0zm-312.59 -31.37l1.61 -1.81 -19.83 -19.58 -1.85 1.84c-9.39,9.65 -18.28,13.95 -28.75,13.95 -18.65,0 -32.72,-15.18 -32.72,-35.4l0 -0.45c0,-19.63 13.78,-34.95 31.39,-34.95 13.65,0 21.87,6.69 28.76,13.92l1.84 1.97 20.23 -21.78 -1.59 -1.75c-13.27,-14.63 -28.39,-21.15 -49,-21.15 -35.79,0 -63.76,28.17 -63.76,64.19l0 0.46c0,35.62 27.88,63.53 63.52,63.53 26.04,0 39.97,-11.62 50.15,-22.99l0 0zm73.39 22.54c36.95,0 65.81,-28.09 65.81,-63.96l0 -0.46c0,-35.77 -28.7,-63.76 -65.3,-63.76 -36.78,0 -65.55,28.18 -65.55,64.22l0 0.46c0,35.59 28.58,63.5 65.04,63.5l0 0zm-32.91 -64.42c0,-20.26 13.84,-34.99 32.92,-34.99 19.19,0 33.7,15.22 33.7,35.45l0 0.46c0,17.34 -11.42,34.93 -33.2,34.93 -18.76,0 -33.42,-15.5 -33.42,-35.39l0 -0.46zm-207.2 -59.52l0.16 2.51 0 67.45c0,13.72 -8.9,23.29 -21.73,23.29 -12.65,0 -22.24,-10.15 -22.24,-23.62l0 -69.63 -33.81 0 0 69.96c0,30.54 24.47,50.63 55.72,50.63 9.55,0 18.47,-3.55 26.26,-7.52l2.21 -1.18 0.36 6.23 0 2.37 27.07 0 0 -120.49 -33.84 0 -0.16 0zm358.08 120.59l-0.13 -2.48 0 -67.47c0,-13.75 8.91,-23.31 21.71,-23.31 12.7,0 22.26,10.15 22.26,23.64l0 69.62 33.81 0 0 -69.95c0,-30.59 -24.46,-50.64 -55.71,-50.64 -9.59,0 -18.5,3.52 -26.29,7.53l-2.21 1.15 -0.35 -6.23 0 -2.45 -27.1 0 0 120.59 33.88 0 0.13 0zm-490.66 -118.6l0 5.22c-9.7,-5.54 -21.29,-11.24 -33.99,-11.24 -37.47,0 -66.83,26.14 -66.83,62.85l0 0.48c0,36.33 29.18,62.15 66.4,62.15 12.69,0 24.42,-5.85 34.42,-11.55l0 8.44 30.23 0 0 -119.22 -30.23 0 0 2.87zm-32.82 92.97c-20.3,0 -36.73,-16.19 -36.73,-36.14 0,-19.93 16.43,-36.12 36.73,-36.12 20.28,0 36.74,16.19 36.74,36.12 0,19.95 -16.46,36.14 -36.74,36.14l0 0zm-126.74 -78.1c8.23,0 19.62,3.99 33.72,11.77l1.14 0.64 12.64 -22.92 -1.01 -0.65c-13.76,-8.53 -31.09,-13.62 -46.33,-13.62 -23.4,0 -47.01,12.52 -47.01,40.54l0 0.47c0,22.91 21.09,32.03 39.42,37.42 12.15,3.59 24.02,7.83 24.02,16.87l0 0.45c0,3.9 -1.74,14.08 -17.9,14.08 -11.34,0 -25.72,-6.66 -40.56,-16.64l-1.06 -0.74 -14.17 21.78 1 0.72c15.79,11.66 34.89,19.59 53.79,19.59 31.78,0 49.27,-15.41 49.27,-40.71l0 -2.56c0,-16.01 -12.78,-28.04 -39.17,-36.83l0.02 0 -64.93 0 -3.22 -1.09c-12.22,-4.06 -21.05,-7.01 -21.05,-16.31l0 -0.52c0,-5.64 5.16,-11.74 16.48,-11.74l64.91 0zm0 0l0 0 0 0z"/>
   </g>
   <g>
    <path class="fil0" d="M1220.91 164.38l0 -0.04c-9.87,-6.73 -9.87,-6.78 -16.63,-10.85 -64.79,-39.28 -98.27,-43.89 -129.68,-33.4 -24.41,8.17 -66.39,41.4 -66.39,41.4 -38.34,25.59 -77.12,67.87 -168.01,62.93 -84.63,-4.58 -258.88,-49.83 -260.99,-50.41 -2.1,-0.61 -4.29,0.96 -3.64,3.43 0.49,1.87 4.72,11.16 4.72,11.16 0.54,1.26 1.66,1.55 2.21,1.8 69.39,27.85 281.05,105.46 355.85,105.46 89.16,0 162.92,-123.77 242.23,-123.77 24.61,0 30.85,0.88 34.38,0.91 3.5,0.3 6.46,-0.76 7.34,-3.85 0,0 1.22,-2.57 -1.39,-4.77l0 0zm-230.03 79.34c-1,5.02 -3.9,9.32 -8.12,12.14 -4.27,2.86 -9.34,3.82 -14.36,2.86 -5,-1.05 -9.3,-3.92 -12.12,-8.15 -5.85,-8.79 -3.45,-20.64 5.32,-26.49 8.76,-5.82 20.63,-3.43 26.46,5.32 2.82,4.24 3.82,9.34 2.82,14.32l0 0zm48.04 -25.22c-8.78,5.83 -20.63,3.42 -26.49,-5.32 -5.78,-8.8 -3.44,-20.66 5.32,-26.47 8.77,-5.81 20.63,-3.42 26.47,5.3 2.16,3.21 3.17,6.9 3.2,10.5 0,6.2 -2.99,12.29 -8.5,15.99l0 0zm64.28 -49.52c-0.98,5 -3.89,9.34 -8.15,12.12 -4.24,2.86 -9.32,3.84 -14.3,2.83 -5.02,-1 -9.32,-3.91 -12.18,-8.12 -2.8,-4.26 -3.8,-9.33 -2.8,-14.33 1.01,-5.01 3.87,-9.32 8.17,-12.13 4.22,-2.83 9.29,-3.84 14.3,-2.83 4.99,0.99 9.31,3.89 12.14,8.14 2.83,4.23 3.82,9.32 2.83,14.32l-0.01 0zm-102.75 -141.84c12.82,0 23.49,10.02 23.49,23.15 0,13.36 -10.67,23.39 -23.49,23.39 -12.72,0 -23.43,-10.03 -23.43,-23.16 0,-13.36 10.71,-23.38 23.43,-23.38l0 0zm0 43.15c10.97,0 19.73,-8.65 19.73,-20 0,-11.21 -8.76,-19.78 -19.73,-19.78 -10.92,0 -19.7,8.57 -19.7,20.02 0,11.11 8.78,19.76 19.7,19.76l0 0zm-8.68 -33.19l9.93 0c6.4,0 9.44,2.35 9.44,7.74 0,4.84 -3.1,6.88 -7.12,7.32l7.82 11.9 -4.12 0 -7.37 -11.58 -4.8 0 0 11.58 -3.78 0 0 -26.96zm3.78 12.01l4.6 0c3.74,0 7.23,-0.21 7.23,-4.45 0,-3.75 -3.16,-4.21 -6.06,-4.21l-5.77 0 0 8.66zm0 0l0 0 0 0z"/>
   </g>
  </g>
 </g>
</svg>
