<svg id="svg" version="1.1" xmlns="http://www.w3.org/2000/svg" xmlns:xlink="http://www.w3.org/1999/xlink" width="400" height="337.57802746566796" viewBox="0, 0, 400,337.57802746566796"><g id="svgg"><path id="path0" d="M213.873 0.855 C 213.692 1.325,213.531 5.651,213.514 10.468 L 213.483 19.226 214.809 19.379 C 216.130 19.532,216.137 19.516,216.493 15.235 C 216.997 9.189,217.709 9.337,220.680 16.105 C 222.043 19.211,222.280 19.476,223.689 19.476 C 225.605 19.476,225.593 19.132,223.513 14.482 L 221.838 10.737 223.052 10.084 C 225.338 8.856,225.969 4.584,224.197 2.332 C 222.419 0.071,214.603 -1.047,213.873 0.855 M196.504 0.836 C 193.178 1.251,192.759 1.473,192.759 2.820 C 192.759 4.053,192.863 4.106,194.692 3.813 L 196.626 3.504 196.929 6.871 C 197.096 8.722,197.380 12.428,197.561 15.106 L 197.890 19.975 199.625 19.975 C 201.306 19.975,201.351 19.925,201.081 18.352 C 200.928 17.459,200.651 13.776,200.465 10.167 L 200.128 3.604 202.111 3.269 C 203.880 2.970,204.069 2.803,203.862 1.717 C 203.621 0.460,201.527 0.209,196.504 0.836 M237.683 5.368 C 235.448 10.737,232.709 18.381,232.709 19.251 C 232.709 21.043,235.522 20.057,236.339 17.978 C 237.613 14.732,243.196 15.290,243.196 18.662 C 243.196 20.092,244.091 20.974,245.543 20.974 C 246.991 20.974,247.011 21.411,245.081 10.612 L 243.453 1.498 241.374 1.498 L 239.294 1.498 237.683 5.368 M221.580 3.808 C 223.183 6.000,221.886 8.429,218.899 8.829 C 216.384 9.166,216.208 8.897,216.582 5.279 L 216.880 2.386 218.910 2.658 C 220.026 2.808,221.228 3.325,221.580 3.808 M258.216 5.401 C 257.649 7.568,255.924 16.733,255.463 20.028 L 255.141 22.328 258.782 22.896 C 266.930 24.165,270.630 20.493,270.069 11.691 C 269.756 6.780,267.370 4.807,260.560 3.829 C 258.760 3.571,258.681 3.623,258.216 5.401 M167.794 4.619 C 167.796 4.688,168.337 7.553,168.997 10.986 C 169.657 14.419,170.141 17.286,170.073 17.356 C 170.004 17.427,168.456 15.404,166.633 12.862 C 161.673 5.946,161.820 6.084,159.755 6.351 L 157.963 6.582 158.622 10.407 C 160.806 23.075,161.577 25.563,163.189 25.141 C 164.581 24.777,164.595 23.719,163.287 17.521 C 162.010 11.471,161.960 11.464,166.789 18.004 C 170.928 23.611,172.382 24.538,174.195 22.726 C 174.400 22.520,171.646 7.679,170.974 5.368 C 170.771 4.671,167.776 3.966,167.794 4.619 M241.634 7.116 C 241.913 8.558,242.286 10.693,242.463 11.860 L 242.784 13.983 240.868 13.975 C 237.768 13.963,237.633 13.649,239.040 9.734 C 239.730 7.813,240.412 5.849,240.555 5.368 C 240.949 4.047,241.083 4.265,241.634 7.116 M263.871 7.188 C 267.885 8.866,268.446 16.612,264.762 19.510 C 263.547 20.465,258.676 20.938,258.677 20.100 C 258.678 19.696,260.536 9.465,260.944 7.615 C 261.234 6.304,261.620 6.248,263.871 7.188 M281.925 11.144 C 281.523 12.568,280.397 16.535,279.424 19.959 C 278.450 23.384,277.653 26.343,277.653 26.536 C 277.653 27.511,286.707 29.658,287.246 28.811 C 288.234 27.258,287.634 26.602,284.644 25.968 C 282.996 25.618,281.648 25.125,281.648 24.872 C 281.648 24.394,282.723 19.820,282.888 19.600 C 282.939 19.530,284.073 19.803,285.408 20.204 C 287.168 20.734,288.014 20.786,288.487 20.394 C 289.746 19.349,289.115 18.541,286.433 17.761 L 283.727 16.975 284.213 15.104 C 284.480 14.075,284.788 12.962,284.898 12.629 C 285.049 12.169,285.710 12.207,287.667 12.788 C 289.081 13.208,290.552 13.431,290.936 13.283 C 291.930 12.902,291.804 11.104,290.762 10.792 C 290.281 10.647,288.260 10.085,286.272 9.542 L 282.655 8.555 281.925 11.144 M140.449 11.330 C 139.329 11.554,139.326 11.584,139.326 21.566 L 139.326 31.577 140.449 31.276 C 141.067 31.110,141.874 30.972,142.242 30.968 C 142.729 30.963,142.865 30.329,142.742 28.636 C 142.484 25.108,147.363 23.454,149.143 26.467 C 150.053 28.008,152.371 28.578,153.078 27.435 C 153.258 27.143,151.184 23.379,148.469 19.070 C 143.438 11.085,143.135 10.792,140.449 11.330 M146.560 22.482 C 146.206 23.056,142.721 24.036,142.350 23.666 C 142.197 23.513,142.006 21.328,141.925 18.810 L 141.777 14.232 144.308 18.131 C 145.701 20.275,146.714 22.233,146.560 22.482 M123.221 17.326 C 121.787 17.696,122.171 19.496,125.432 27.698 C 128.540 35.515,128.996 36.131,130.823 34.975 C 131.669 34.440,130.319 29.829,126.953 21.761 C 125.072 17.253,124.793 16.921,123.221 17.326 M311.002 27.840 C 307.568 35.355,307.262 36.268,307.992 36.829 C 309.376 37.891,310.112 37.534,311.080 35.331 C 311.593 34.164,312.719 31.748,313.582 29.963 L 315.152 26.717 314.857 29.963 C 313.865 40.876,313.824 39.860,315.275 40.224 C 316.412 40.509,316.929 40.170,319.216 37.637 C 320.663 36.033,322.693 33.819,323.725 32.716 L 325.603 30.712 323.101 36.385 C 320.161 43.053,320.213 42.714,322.029 43.347 C 323.682 43.923,323.262 44.594,328.197 33.486 C 331.029 27.112,331.134 26.738,330.259 26.098 C 327.526 24.100,326.781 24.513,321.187 31.126 C 319.368 33.276,317.792 34.774,317.685 34.453 C 317.503 33.907,318.314 26.201,318.934 22.595 C 319.200 21.047,317.334 19.476,315.231 19.476 C 315.008 19.476,313.105 23.240,311.002 27.840 M107.078 23.918 C 100.562 26.877,103.064 34.457,110.557 34.457 C 113.196 34.457,115.356 35.764,115.356 37.361 C 115.356 38.662,113.360 39.950,111.345 39.950 C 109.400 39.950,107.985 41.354,108.702 42.572 C 109.218 43.447,113.731 42.932,115.400 41.808 C 120.867 38.123,118.821 32.075,111.942 31.582 C 105.622 31.130,104.426 26.944,110.345 25.990 C 111.811 25.754,112.137 25.475,112.268 24.339 C 112.465 22.629,110.302 22.453,107.078 23.918 M89.096 33.169 C 82.396 36.086,84.558 43.945,92.061 43.945 C 96.166 43.945,97.378 44.573,97.378 46.699 C 97.378 48.189,95.644 49.438,93.575 49.438 C 92.592 49.438,91.877 49.738,91.689 50.228 C 90.062 54.467,97.904 52.666,100.040 48.310 C 102.124 44.060,99.433 40.949,93.672 40.949 C 87.590 40.949,85.835 36.550,91.548 35.623 C 93.154 35.362,93.845 34.534,93.876 32.834 C 93.887 32.225,90.762 32.444,89.096 33.169 M338.260 40.142 C 331.063 46.782,330.614 47.358,331.903 48.301 C 333.159 49.220,333.785 49.100,335.219 47.666 L 336.492 46.393 339.029 47.791 C 340.424 48.560,341.468 49.453,341.349 49.777 C 340.367 52.444,340.514 53.745,341.865 54.360 C 343.292 55.011,344.044 54.557,344.062 53.034 C 344.066 52.677,344.969 49.176,346.067 45.254 C 348.536 36.442,348.556 35.875,346.442 34.867 L 344.818 34.092 338.260 40.142 M343.731 42.570 L 342.429 46.889 340.503 45.906 C 338.050 44.655,338.018 44.785,341.670 41.101 C 345.419 37.318,345.333 37.257,343.731 42.570 M262.032 40.791 C 261.376 41.839,256.894 49.663,252.071 58.177 C 247.248 66.692,242.271 75.400,241.010 77.529 C 236.233 85.595,235.381 87.890,237.162 87.890 C 237.897 87.890,240.186 84.252,246.984 72.285 C 251.859 63.702,257.841 53.200,260.278 48.949 C 262.715 44.697,264.643 40.782,264.564 40.249 C 264.316 38.585,263.274 38.808,262.032 40.791 M72.257 44.337 C 71.503 45.170,71.650 45.492,74.483 49.206 C 79.828 56.214,80.778 59.555,77.737 60.641 C 75.713 61.364,74.229 60.233,70.951 55.468 C 66.392 48.841,66.020 48.550,64.055 50.068 C 63.273 50.672,63.673 51.449,67.459 56.679 C 72.597 63.776,74.681 65.101,78.383 63.620 C 84.312 61.247,84.428 57.228,78.796 49.255 C 74.506 43.182,73.790 42.643,72.257 44.337 M133.958 44.809 C 132.739 45.234,133.471 46.507,146.272 66.218 C 161.136 89.106,160.829 88.676,161.999 88.227 C 163.386 87.695,162.913 86.858,150.111 67.210 C 143.474 57.024,137.541 47.869,136.927 46.866 C 135.762 44.964,135.009 44.443,133.958 44.809 M356.614 50.713 C 350.338 59.206,350.037 59.769,351.281 60.699 C 352.719 61.773,352.877 61.682,355.182 58.440 C 357.442 55.263,357.474 55.237,358.417 55.836 C 358.898 56.142,358.851 57.167,358.198 60.554 C 357.398 64.705,357.401 64.922,358.285 65.898 C 359.880 67.662,360.334 66.960,361.538 60.862 C 362.088 58.073,362.106 58.051,364.116 57.782 C 371.216 56.829,370.384 50.324,362.517 45.275 L 361.239 44.454 356.614 50.713 M364.583 49.899 C 367.953 53.269,363.481 57.270,359.925 54.066 C 358.779 53.033,358.796 52.936,360.552 50.512 C 362.338 48.047,362.679 47.995,364.583 49.899 M272.237 62.047 C 262.594 73.502,248.201 91.740,248.196 92.509 C 248.192 93.044,248.567 93.383,249.160 93.383 C 250.263 93.383,277.653 60.053,277.653 58.711 C 277.653 56.808,275.566 58.093,272.237 62.047 M374.782 63.478 C 366.183 73.102,366.765 72.275,367.788 73.406 C 369.083 74.837,369.429 74.708,372.142 71.785 L 374.576 69.164 374.273 73.159 C 374.107 75.356,373.870 77.506,373.747 77.936 C 373.624 78.366,374.100 79.259,374.803 79.920 C 376.527 81.540,376.820 80.937,377.172 75.045 C 377.520 69.201,377.642 69.062,383.200 68.162 C 388.453 67.312,388.846 67.112,387.720 65.868 C 386.777 64.826,384.150 64.610,381.722 65.375 C 380.926 65.627,379.529 65.961,378.618 66.119 L 376.961 66.405 379.242 63.798 C 381.662 61.032,381.879 60.481,380.924 59.526 C 379.775 58.377,378.750 59.036,374.782 63.478 M291.771 66.826 C 282.112 74.882,281.390 75.584,281.911 76.426 C 282.738 77.764,302.622 62.289,302.622 60.308 C 302.622 58.329,300.254 59.752,291.771 66.826 M51.422 60.749 C 49.539 62.005,46.441 65.056,46.451 65.644 C 46.461 66.203,57.795 79.031,58.541 79.327 C 59.033 79.523,60.924 77.967,60.924 77.366 C 60.924 77.156,59.767 75.719,58.353 74.172 C 54.826 70.312,55.515 69.648,60.793 71.821 C 65.030 73.565,65.915 73.710,66.816 72.809 C 67.989 71.637,67.366 71.011,63.394 69.372 L 59.372 67.711 59.692 65.820 C 60.461 61.267,55.347 58.131,51.422 60.749 M56.016 63.748 C 57.244 64.860,57.168 66.847,55.843 68.257 C 54.340 69.857,53.779 69.727,51.694 67.291 L 49.878 65.169 51.184 64.045 C 52.727 62.718,54.741 62.594,56.016 63.748 M124.345 77.797 C 124.345 79.373,140.085 93.383,141.856 93.383 C 144.243 93.383,142.539 91.301,134.357 84.225 C 126.114 77.095,124.345 75.959,124.345 77.797 M268.664 85.958 C 258.205 94.697,257.699 95.171,257.686 96.255 C 257.665 97.947,260.390 96.222,268.999 89.092 C 281.113 79.059,281.149 79.027,281.149 78.148 C 281.149 76.088,278.473 77.762,268.664 85.958 M102.871 85.636 C 102.871 86.522,101.939 85.911,125.315 100.344 C 144.155 111.978,145.908 112.926,146.573 111.850 C 147.213 110.814,139.795 105.946,109.159 87.298 C 105.159 84.863,102.871 84.259,102.871 85.636 M215.831 91.637 C 211.608 95.266,209.515 97.527,206.930 101.250 C 201.652 108.853,189.777 119.458,184.104 121.635 C 183.613 121.823,180.895 120.034,176.519 116.642 L 169.701 111.355 168.371 112.342 C 161.448 117.481,148.431 129.389,147.316 131.604 C 146.109 134.000,145.960 134.109,142.821 134.875 C 138.698 135.882,135.909 137.318,133.356 139.747 C 130.758 142.218,130.699 143.117,133.208 142.006 C 134.238 141.550,138.227 140.330,142.072 139.295 C 150.177 137.113,151.429 136.669,153.374 135.284 C 155.119 134.041,155.131 134.278,153.564 139.182 C 151.090 146.929,152.186 146.299,160.702 135.081 C 167.169 126.563,170.108 123.346,171.421 123.346 C 172.039 123.346,175.718 126.574,181.080 131.819 C 190.816 141.344,192.602 142.542,196.584 142.211 C 200.877 141.855,202.537 139.823,199.376 138.793 C 194.907 137.337,186.068 128.782,187.566 127.364 C 188.929 126.074,200.836 116.961,202.719 115.766 C 207.619 112.657,207.944 115.115,203.378 120.751 C 201.333 123.275,201.466 123.686,203.985 122.633 C 209.001 120.537,210.729 118.174,211.286 112.648 C 211.802 107.535,214.196 102.504,218.024 98.489 L 220.749 95.630 220.612 101.210 C 220.490 106.149,220.349 106.922,219.384 107.951 C 217.673 109.775,217.173 111.699,216.871 117.603 C 216.572 123.474,216.158 124.711,213.153 128.711 C 211.253 131.241,211.598 131.898,214.127 130.565 C 220.876 127.007,224.995 118.734,226.923 104.864 C 227.355 101.758,227.801 99.123,227.915 99.010 C 229.152 97.773,236.359 104.902,244.692 115.605 C 255.586 129.598,259.203 132.579,262.764 130.499 C 264.887 129.259,264.995 128.596,263.195 127.850 C 260.523 126.743,255.247 119.617,256.312 118.552 C 256.740 118.125,261.544 121.602,269.164 127.856 C 282.710 138.975,286.216 140.625,291.530 138.383 C 293.380 137.603,294.590 135.936,293.530 135.628 C 287.695 133.936,280.655 129.301,269.759 119.977 C 260.098 111.709,257.228 109.913,249.930 107.566 L 244.428 105.796 233.483 96.344 C 227.462 91.145,222.270 86.891,221.945 86.891 C 221.620 86.891,218.869 89.027,215.831 91.637 M163.494 91.091 C 162.818 92.852,172.543 107.865,174.360 107.865 C 176.118 107.865,175.188 105.818,169.428 97.010 C 164.958 90.173,164.154 89.371,163.494 91.091 M143.820 94.850 C 143.820 96.338,156.962 107.843,158.677 107.856 C 160.896 107.874,159.706 106.339,152.702 100.153 C 145.761 94.021,143.820 92.862,143.820 94.850 M273.322 151.308 C 269.200 152.173,265.467 154.713,263.700 157.856 L 262.526 159.945 263.723 159.666 C 271.495 157.852,273.828 157.985,277.503 160.453 C 286.670 166.608,285.250 185.612,273.643 212.108 C 262.501 237.544,243.955 263.091,238.452 260.583 C 231.889 257.593,237.377 240.519,252.240 217.686 C 256.081 211.785,256.262 211.005,254.324 208.701 C 252.291 206.285,243.196 203.310,243.196 205.061 C 243.196 205.299,241.163 208.976,238.678 213.233 C 236.193 217.491,233.185 222.996,231.994 225.468 C 221.430 247.388,204.775 270.662,199.652 270.662 C 196.838 270.662,196.484 262.114,199.012 255.181 C 201.528 248.280,207.720 236.635,214.068 226.868 C 218.686 219.764,216.399 215.627,207.795 215.520 L 204.604 215.481 202.577 218.851 C 200.212 222.784,200.411 222.720,197.487 220.488 C 193.514 217.456,186.054 215.795,180.524 216.712 C 168.238 218.750,158.068 231.474,150.973 253.683 C 145.116 272.017,134.689 286.152,131.529 280.041 C 129.473 276.064,131.299 269.009,137.063 258.668 C 143.422 247.260,142.360 244.846,130.148 242.943 C 123.250 241.869,123.484 242.231,126.109 236.691 C 130.466 227.497,133.496 215.643,132.645 211.126 C 131.097 202.908,116.481 201.648,109.796 209.156 C 96.545 224.037,97.203 237.780,111.533 245.450 L 114.345 246.955 112.775 249.945 C 110.354 254.552,103.563 265.846,100.569 270.244 C 97.437 274.844,97.167 276.155,99.355 276.155 C 101.434 276.155,109.997 265.201,117.116 253.434 L 120.022 248.630 122.059 248.967 C 124.759 249.412,124.722 249.162,122.690 253.292 C 115.739 267.417,115.652 279.020,122.452 284.880 C 130.292 291.637,137.918 289.276,146.171 277.536 L 148.885 273.675 150.972 276.777 C 158.521 288.003,168.537 284.698,180.504 267.031 C 184.349 261.355,184.744 261.211,184.762 265.482 C 184.787 271.261,190.917 276.854,197.253 276.881 C 203.411 276.906,208.959 272.357,218.025 259.847 L 222.923 253.088 223.473 255.758 C 225.537 265.773,235.995 270.961,245.002 266.439 C 262.897 257.453,291.504 211.575,295.615 185.268 C 298.954 163.904,288.584 148.107,273.322 151.308 M163.296 154.114 C 162.335 154.222,159.301 154.545,156.554 154.833 C 125.293 158.106,96.289 166.529,52.723 184.984 C 22.115 197.950,9.452 200.621,2.320 195.615 C -1.878 192.668,-0.065 204.841,4.262 208.650 C 11.533 215.050,20.851 213.194,56.806 198.180 C 75.653 190.310,87.407 185.610,87.629 185.855 C 87.711 185.944,85.029 192.197,81.669 199.750 C 51.167 268.327,44.721 293.689,54.762 305.623 C 56.961 308.235,66.456 311.490,65.311 309.238 C 62.144 303.009,62.175 303.132,62.235 297.129 C 62.394 280.889,73.729 249.992,97.939 199.798 C 103.394 188.488,103.420 186.565,98.156 184.067 C 95.552 182.831,95.812 182.612,102.247 180.616 C 126.144 173.203,159.968 166.292,172.349 166.292 C 186.367 166.292,189.573 172.749,178.875 179.439 L 175.543 181.523 177.715 181.679 C 182.575 182.029,190.690 178.267,192.038 175.040 C 194.686 168.703,190.188 159.167,182.696 155.236 C 180.550 154.110,169.189 153.453,163.296 154.114 M367.140 159.925 C 361.343 170.403,352.056 190.501,345.738 206.242 C 333.498 236.736,322.353 250.208,306.854 253.247 C 298.501 254.884,293.424 248.221,295.073 237.787 C 295.608 234.402,295.365 234.516,300.510 235.244 C 317.347 237.627,339.286 217.032,332.896 204.842 C 329.705 198.755,319.300 194.009,311.225 194.958 C 293.626 197.026,278.116 229.548,286.377 247.056 C 295.051 265.438,317.472 264.149,333.393 244.354 L 337.250 239.559 337.831 241.502 C 340.160 249.290,347.051 255.196,353.781 255.169 C 369.194 255.109,399.979 221.348,399.989 204.494 C 399.992 198.809,396.080 193.623,390.937 192.493 C 388.927 192.052,388.886 192.172,390.024 195.166 C 393.377 203.990,385.607 220.548,370.823 236.081 C 360.421 247.011,353.622 250.089,351.104 245.009 C 346.071 234.855,356.696 203.443,376.245 170.680 C 379.148 165.816,381.523 161.507,381.523 161.106 C 381.523 158.554,376.359 155.335,372.238 155.317 L 369.695 155.306 367.140 159.925 M230.712 175.780 L 230.712 178.777 228.714 178.777 C 226.795 178.777,226.716 178.713,226.710 177.154 C 226.697 174.119,226.239 173.283,224.586 173.283 L 223.071 173.283 223.396 177.854 C 223.574 180.369,223.720 183.641,223.720 185.127 L 223.720 187.829 225.343 187.672 L 226.966 187.516 226.966 184.519 L 226.966 181.523 229.089 181.370 L 231.211 181.216 231.211 184.241 L 231.211 187.266 232.709 187.266 L 234.207 187.266 234.202 181.898 C 234.194 174.014,233.916 172.784,232.144 172.784 C 230.726 172.784,230.712 172.814,230.712 175.780 M240.200 179.775 L 240.200 186.767 243.945 186.767 C 247.607 186.767,247.690 186.739,247.690 185.518 C 247.690 184.371,247.507 184.270,245.443 184.270 C 243.208 184.270,243.196 184.260,243.196 182.522 C 243.196 180.816,243.244 180.774,245.194 180.774 C 246.991 180.774,247.191 180.649,247.191 179.526 C 247.191 178.402,246.991 178.277,245.194 178.277 C 243.307 178.277,243.196 178.194,243.196 176.779 C 243.196 175.336,243.279 175.281,245.443 175.281 C 247.507 175.281,247.690 175.179,247.690 174.032 C 247.690 172.812,247.607 172.784,243.945 172.784 L 240.200 172.784 240.200 179.775 M213.679 174.266 C 209.582 174.806,207.531 177.278,211.180 177.278 C 212.804 177.278,212.920 177.614,213.520 184.085 C 213.926 188.460,214.180 188.922,215.936 188.481 C 217.173 188.170,217.271 187.977,217.028 186.330 C 216.881 185.334,216.618 182.808,216.443 180.716 L 216.125 176.914 217.458 176.579 C 218.475 176.324,218.754 175.982,218.634 175.138 C 218.453 173.864,217.715 173.734,213.679 174.266 M324.270 202.885 C 328.662 208.089,313.071 226.863,302.368 229.258 C 296.459 230.580,296.109 229.588,299.800 221.973 C 306.981 207.153,319.578 197.327,324.270 202.885 M126.841 215.273 C 126.841 218.428,123.396 228.633,119.400 237.316 C 117.772 240.852,116.956 241.151,114.498 239.111 C 112.630 237.560,114.770 230.037,119.362 222.009 C 122.909 215.810,126.841 212.268,126.841 215.273 M195.745 225.522 C 198.764 226.730,198.575 227.229,189.597 241.698 C 168.017 276.479,160.332 283.995,160.307 270.340 C 160.267 248.012,182.302 220.144,195.745 225.522 M264.170 284.728 C 219.973 286.100,176.101 297.931,130.462 320.785 L 121.848 325.099 121.848 326.996 C 121.848 329.444,123.812 333.359,126.218 335.709 L 128.113 337.560 139.837 332.150 C 191.661 308.237,242.340 296.535,283.261 299.033 C 308.583 300.578,323.893 305.929,327.656 314.549 C 328.817 317.210,329.773 316.712,331.583 312.504 C 339.976 292.994,316.008 283.119,264.170 284.728 M206.742 329.338 L 206.742 336.579 207.937 336.579 C 209.539 336.579,209.814 335.620,209.500 331.134 C 209.194 326.770,209.319 326.880,210.877 332.335 C 212.441 337.810,214.210 338.349,215.494 333.739 C 217.046 328.165,217.147 328.088,217.189 332.459 C 217.225 336.174,217.323 336.579,218.186 336.579 C 220.596 336.579,220.724 336.278,220.724 330.596 C 220.724 322.718,220.539 322.097,218.186 322.097 L 216.272 322.097 215.206 325.718 C 213.736 330.706,213.530 330.733,212.000 326.137 L 210.655 322.097 208.698 322.097 L 206.742 322.097 206.742 329.338 M227.715 329.310 L 227.715 336.579 229.213 336.579 L 230.712 336.579 230.751 332.459 C 230.773 330.194,230.873 328.564,230.974 328.839 C 231.075 329.114,231.645 330.980,232.240 332.986 C 233.809 338.275,235.273 338.085,237.250 332.335 L 238.623 328.340 238.662 332.459 L 238.702 336.579 240.200 336.579 L 241.698 336.579 241.698 329.338 L 241.698 322.097 239.549 322.097 L 237.400 322.097 236.271 325.718 C 235.649 327.709,235.013 329.675,234.856 330.087 C 234.695 330.508,233.990 328.978,233.245 326.592 L 231.921 322.347 229.818 322.194 L 227.715 322.040 227.715 329.310 M248.041 322.971 C 248.216 323.452,249.012 325.016,249.809 326.446 L 251.258 329.047 249.474 332.091 C 247.271 335.851,247.223 336.579,249.179 336.579 C 250.448 336.579,250.841 336.237,251.847 334.258 L 253.027 331.937 254.235 334.133 C 255.227 335.936,255.733 336.358,257.060 336.486 C 259.121 336.686,259.102 336.255,256.882 332.284 L 255.087 329.075 256.632 326.106 C 258.535 322.449,258.544 322.097,256.736 322.097 C 255.583 322.097,255.131 322.443,254.475 323.824 C 253.309 326.282,252.938 326.320,251.929 324.081 C 250.949 321.909,247.270 320.858,248.041 322.971 M263.171 322.716 C 263.171 323.056,263.993 326.314,264.997 329.957 L 266.823 336.579 268.702 336.579 C 270.791 336.579,271.080 335.994,273.639 326.602 C 274.925 321.881,274.956 322.097,273.002 322.097 L 271.347 322.097 270.088 326.966 L 268.829 331.835 267.650 326.966 L 266.470 322.097 264.821 322.097 C 263.842 322.097,263.171 322.349,263.171 322.716 " stroke="none" fill="#000000" fill-rule="evenodd"></path></g></svg>